<?xml version="1.0" encoding="utf-8"?>
<!-- Generator: Adobe Illustrator 25.0.0, SVG Export Plug-In . SVG Version: 6.00 Build 0)  -->
<svg version="1.1" id="Calque_1" xmlns="http://www.w3.org/2000/svg" xmlns:xlink="http://www.w3.org/1999/xlink" x="0px" y="0px"
	 viewBox="0 0 1417.3 566.9" style="enable-background:new 0 0 1417.3 566.9;" xml:space="preserve">
<style type="text/css">
	.st0{fill-rule:evenodd;clip-rule:evenodd;fill:#020203;}
</style>
<g>
	<path class="st0" d="M192.4,287.7l63.2,80.5c32.1,40.2,103.1,58.9,154.5,38.7l0.5,0.7c-58.1,31.1-135.8,15.3-184.7-24.3
		c-34.5-26.8-54.1-64.9-83.2-95.7v63.8c0,5.5,3.5,9.4,3.5,9.4l-25.4,0c0,0,3.4-3.8,3.4-9.4V200.5
		C148.1,229.4,168.8,257.2,192.4,287.7L192.4,287.7z M1364.8,343.8c0-10.5,8.5-19,19-19c0,0,0,0,0,0c10.5,0,19,8.5,19,19
		c0,10.5-8.5,19-19,19C1373.3,362.8,1364.8,354.3,1364.8,343.8z M1383.8,360.9c9.4,0,17.1-7.6,17.1-17.1c0-9.4-7.6-17.1-17.1-17.1
		c0,0,0,0,0,0c-9.4,0-17.1,7.7-17.1,17.1C1366.7,353.2,1374.4,360.8,1383.8,360.9z"/>
	<path class="st0" d="M1375.5,332.3h10.3c4.7,0,7.1,2.2,7.1,5.8c0,4.1-2.9,5.2-3.5,5.4v0.1c1.3,0.2,3.2,1.1,3.2,4.5
		c0,2.5,0.4,4.8,1.2,5.7h-4c-0.6-0.9-0.6-2.1-0.6-3.2c0-3.9-0.8-5.7-4.3-5.7h-5.5v8.9h-3.8L1375.5,332.3L1375.5,332.3z
		 M1379.3,342.1h6.2c2.4,0,3.7-1.2,3.7-3.4c0-2.7-1.8-3.3-3.7-3.3h-6.1V342.1z M1287.4,363.2c-9.8,0.1-76.8-2.1-76.7-78.4
		c0.1-76,66.4-77.1,76.7-77c10.3-0.1,76.5,1,76.7,77C1364.2,361.1,1297.2,363.3,1287.4,363.2z M1287.7,342.2
		c4.2,0,35.2,1.4,34.9-60.3c-0.2-57.2-30.2-55.5-35.2-55.5h0c-4.9,0-35-1.7-35.3,55.5c-0.3,61.7,30.7,60.3,34.9,60.3H1287.7z
		 M1191.5,216.4l0,18.9c-7.8-3.3-12.2-5.7-20.5-7.9c-6.5-1.4-34.4-8.1-47.7,6c-5.7,5.7-7.4,16.1,3.8,24.1
		c15.8,10.2,38.4,14.9,56.9,30.1c12.2,9.6,16,20.9,12.9,38.1c-3.1,17.6-22.4,31.7-39.5,35.3c-25,5.2-53.2,2.8-75.5-6.7l0.1-18.6
		c20.5,8.6,52.4,19.5,72.3,2.1c5.4-5,8.7-12.1,5.9-19.4c-4.5-13.5-41.2-21.5-63.7-38.3c-22.2-13.6-20.2-37.1-12.4-50
		C1105,198.7,1158.3,207.4,1191.5,216.4L1191.5,216.4z M1063,216.4v18.9c-7.8-3.3-12.2-5.7-20.5-7.9c-6.5-1.4-34.4-8.1-47.7,6
		c-5.7,5.7-7.4,16.1,3.8,24.1c15.8,10.2,38.4,14.9,56.9,30.1c12.2,9.6,16.1,20.9,13,38.1c-3.1,17.6-22.4,31.7-39.5,35.3
		c-25,5.2-53.2,2.8-75.5-6.7l0.1-18.6c20.5,8.6,52.4,19.5,72.3,2.1c5.4-5,8.7-12.1,5.8-19.4c-4.5-13.5-41.2-21.5-63.7-38.3
		c-22.3-13.6-20.3-37.1-12.4-50C976.5,198.7,1029.7,207.4,1063,216.4L1063,216.4z M536.4,216.4l0,18.9c-7.8-3.3-12.2-5.7-20.5-7.9
		c-6.5-1.4-34.4-8.1-47.7,6c-5.7,5.7-7.4,16.1,3.8,24.1c15.8,10.2,38.4,14.9,56.9,30.1c12.2,9.6,16.1,20.9,12.9,38.1
		c-3.1,17.6-22.4,31.7-39.5,35.3c-25,5.2-53.2,2.8-75.5-6.7l0.1-18.6c20.5,8.6,52.4,19.5,72.3,2.1c5.4-5,8.7-12.1,5.9-19.4
		c-4.5-13.5-41.2-21.5-63.7-38.3c-22.3-13.6-20.2-37.1-12.4-50C449.9,198.7,503.2,207.4,536.4,216.4L536.4,216.4z M207.7,283.2
		c23.5,30.5,44.3,58.3,68.3,87.2V219.5c0.1-3.4,1.3-6.7,3.4-9.4l-25.3,0c0,0,3.5,3.8,3.5,9.4v63.8c-21.6-22.9-38-49.8-59.2-73.2
		c-2.7-3.3-20.9-22.9-26.5-27.6c-38-37.2-99.6-52.4-157.3-27.6l0.6,1c19.7-6.7,48.2-6.6,76.1,4.7c18,6.6,32.9,15.9,47.8,34.2
		C142.8,200,207.7,283.2,207.7,283.2L207.7,283.2z M346.8,345.5c20.3,2,45.1-1.1,64.9-1.6l0,16.9H304.4c0,0,3.4-3.6,3.4-9.4V219.5
		c0-5.8-3.4-9.4-3.4-9.4h107.4l0,16.9c-19.8-0.5-44.6-3.6-64.9-1.6l-0.1,49.7c16.7,1,36.3,1.2,51.9-0.8v17.9
		c-15.3-1.4-35.3-1.7-51.8-0.8l0,5.7L346.8,345.5z M874,345.5c20.3,2,45.1-1.1,64.9-1.6l0,16.9H831.6c0,0,3.4-3.6,3.4-9.4V219.5
		c0-5.8-3.4-9.4-3.4-9.4H939l0,16.9c-19.8-0.5-44.6-3.6-64.9-1.6l-0.1,49.7c16.7,1,36.3,1.2,51.9-0.8v17.9
		c-15.3-1.4-35.3-1.7-51.8-0.8v5.7L874,345.5z M728.1,298.5l0,52.8c0,5.8,3.4,9.4,3.4,9.4l-45.9,0c0,0,3.4-3.6,3.4-9.4V219.5
		c0-5.8-3.4-9.4-3.4-9.4l78.3,0c21.2,0.9,43.7,12.6,44.4,38.2c0.2,20.9-9.1,32.9-22.9,39.5c-2.7,1.2-2.5,0.9-3.4,1.6
		c9.8,23,18.8,39.8,30.7,62c2.4,5.7,7.2,9.4,7.2,9.4h-47.4c0,0,2.8-3.7-0.1-9.4c0,0-16.8-39.7-24.7-52.9L728.1,298.5z M727.9,229.1
		v50.7c12.9,0.1,28.6,1.7,37.6-8.7c7.6-10.1,6.4-23.3,1.2-32.5C757.8,223.5,727.9,229.1,727.9,229.1L727.9,229.1z M599.4,351.3
		c0,3.4,1.2,6.8,3.4,9.4l-45.9,0c0,0,3.4-3.6,3.4-9.4V219.5c0-5.8-3.4-9.4-3.4-9.4h75.9c19,0.7,33.7,9.4,40,27.8
		c4.7,16.2,4.1,37.2-7.4,50.2c-15.3,20.5-66,17.5-66,17.5L599.4,351.3z M599.2,229.3l-0.1,56.5c13.1,0.9,28.6,2.3,37.6-8
		c7.6-10.1,6.4-29.8,1.2-39C629,223.5,599.2,229.3,599.2,229.3z"/>
</g>
</svg>
