<?xml version="1.0" encoding="utf-8"?>
<!-- Generator: Adobe Illustrator 25.0.0, SVG Export Plug-In . SVG Version: 6.00 Build 0)  -->
<svg version="1.1" id="Calque_1" xmlns="http://www.w3.org/2000/svg" xmlns:xlink="http://www.w3.org/1999/xlink" x="0px" y="0px"
	 viewBox="0 0 2500 2500" style="enable-background:new 0 0 2500 2500;" xml:space="preserve">
<style type="text/css">
	.st0{fill-rule:evenodd;clip-rule:evenodd;fill:#362217;}
	.st1{fill-rule:evenodd;clip-rule:evenodd;fill:#C5B196;}
</style>
<g>
	<path class="st0" d="M402.1,1645.1l104.1,132.8c52.5,66,169.3,96.2,253.6,63.6l0.8,0.8c-96.2,50.9-223.4,25.4-303.7-39.7
		c-56.5-44.5-89.1-106.5-136.8-157.4v105c0,8.7,5.6,15.1,5.6,15.1h-41.3c0,0,5.6-6.4,5.6-15.1v-248
		C329.7,1549.7,363.1,1595,402.1,1645.1L402.1,1645.1z M2326.9,1737.4c0-17.5,14.3-31,31.8-31c16.7,0,31,13.5,31,31s-14.3,31-31,31
		C2341.2,1768.4,2326.9,1754.9,2326.9,1737.4z M2358.7,1765.2c15.1,0,27.8-11.9,27.8-27.8c0-15.1-12.7-27.8-27.8-27.8
		c-15.9,0-28.6,12.7-28.6,27.8C2330.1,1753.3,2342.8,1765.2,2358.7,1765.2z"/>
	<path class="st0" d="M2345.2,1719.1h16.7c7.1,0,11.1,3.2,11.1,9.5c0,6.4-4.8,8-5.6,8.7c2.4,0,5.6,1.6,5.6,7.1c0,4,0,8,1.6,9.5h-6.4
		c-0.8-1.6-0.8-3.2-0.8-5.6c0-6.4-1.6-8.7-7.1-8.7h-9.5v14.3h-5.6L2345.2,1719.1L2345.2,1719.1z M2350.7,1735h10.3
		c4,0,6.4-2.4,6.4-5.6c0-4.8-3.2-5.6-6.4-5.6h-10.3V1735L2350.7,1735z M2200.5,1769.2c-16.7,0-126.4-3.2-126.4-128.8
		c0.8-124.8,108.9-126.4,126.4-126.4c16.7,0,125.6,1.6,125.6,126.4c0,125.6-109.7,128.8-126.4,128.8H2200.5z M2200.5,1735
		c7.2,0,58,2.4,57.2-99.4c0-93.8-49.3-90.6-57.2-90.6c-8,0-58-3.2-58,90.6c-0.8,101.8,50.1,99.4,57.2,99.4H2200.5z M2043.1,1528.3
		v31c-13.5-5.6-20.7-9.5-34.2-12.7c-10.3-2.4-56.4-13.5-77.9,9.5c-9.5,9.5-12.7,26.2,6.4,39.7c25.4,16.7,62.8,24.6,93,49.3
		c19.9,15.9,26.2,34.2,21.5,62.8c-5.6,28.6-36.6,51.7-65.2,58c-40.5,8-87.4,4-124-11.1v-31c34.2,14.3,86.7,32.6,119.3,4
		c8.7-8,14.3-19.9,9.5-31.8c-7.2-22.3-67.6-35.8-105-62.8c-36.6-23-33.4-61.2-19.9-82.7C1900.8,1498.8,1988.2,1513.2,2043.1,1528.3
		L2043.1,1528.3z M1831.6,1528.3v31c-12.7-5.6-19.9-9.5-33.4-12.7c-11.1-2.4-56.4-13.5-78.7,9.5c-9.5,9.5-11.9,26.2,6.4,39.7
		c26.2,16.7,62.8,24.6,93.8,49.3c19.9,15.9,26.2,34.2,20.7,62.8c-4.8,28.6-36.6,51.7-64.4,58c-41.3,8-87.4,4-124-11.1v-31
		c33.4,14.3,85.9,32.6,118.5,4c8.7-8,14.3-19.9,9.5-31.8c-7.1-22.3-67.6-35.8-104.1-62.8c-36.6-23-33.4-61.2-20.7-82.7
		C1689.3,1498.8,1776.7,1513.2,1831.6,1528.3L1831.6,1528.3z M967.4,1528.3v31c-13.5-5.6-20.7-9.5-34.2-12.7
		c-10.3-2.4-56.4-13.5-77.9,9.5c-9.5,9.5-12.7,26.2,6.4,39.7c25.4,16.7,62.8,24.6,93,49.3c19.9,15.9,26.2,34.2,21.5,62.8
		c-5.6,28.6-36.6,51.7-65.2,58c-40.5,8-87.5,4-124-11.1l0.8-31c33.4,14.3,85.9,32.6,118.5,4c8.7-8,14.3-19.9,9.5-31.8
		c-7.2-22.3-67.6-35.8-104.9-62.8c-36.6-23-32.6-61.2-19.9-82.7C825,1498.8,912.5,1513.2,967.4,1528.3L967.4,1528.3z M427.5,1638
		c38.2,50.1,72.3,96.2,112.1,143.1v-248c0-8.7,5.6-15.1,5.6-15.1H503c0,0,6.4,6.4,6.4,15.1v105c-35.8-37.4-62.8-81.9-97.8-120
		c-4-5.6-34.2-37.4-42.9-45.3c-62.8-61.2-163.8-85.9-258.4-45.3l0.8,1.6c32.6-11.1,78.7-10.3,124.8,8c29.4,11.1,54.1,26.2,78.7,56.5
		C321,1501.2,427.5,1638,427.5,1638L427.5,1638z M655.7,1740.6c33.4,3.2,73.9-2.4,106.5-3.2v27.8H585.7c0,0,5.6-5.6,5.6-15.1v-217
		c0-9.5-5.6-15.1-5.6-15.1h176.5v27.8c-32.6-0.8-73.1-6.4-106.5-2.4v81.1c27,2.4,59.6,2.4,85.1-0.8v29.4
		c-28.3-2.5-56.7-3.1-85.1-1.6V1740.6L655.7,1740.6z M1521.5,1740.6c33.4,3.2,73.9-2.4,106.5-3.2v27.8h-176.5c0,0,5.6-5.6,5.6-15.1
		v-217c0-9.5-5.6-15.1-5.6-15.1h176.5v27.8c-32.6-0.8-73.2-6.4-106.5-2.4v81.1c27,2.4,59.6,2.4,85.1-0.8v29.4
		c-28.3-2.5-56.7-3.1-85.1-1.6V1740.6L1521.5,1740.6z M1281.4,1663.4v86.7c0,9.5,5.6,15.1,5.6,15.1h-74.7c0,0,5.6-5.6,5.6-15.1v-217
		c0-9.5-5.6-15.1-5.6-15.1h128c35,1.6,72.3,20.7,73.1,62.8c0,34.2-15.1,54.1-37.4,65.2c-4.8,1.6-4,0.8-5.6,2.4
		c15.9,37.4,31,65.2,50.1,101.8c4,9.5,11.9,15.1,11.9,15.1h-77.9c0,0,4.8-5.6,0-15.1c0,0-27.8-65.2-40.6-86.7L1281.4,1663.4
		L1281.4,1663.4L1281.4,1663.4z M1281.4,1549v83.5c21.5,0,46.9,3.2,62-14.3c11.9-16.7,10.3-38.1,1.6-53.3
		C1330.7,1540.2,1281.4,1549,1281.4,1549z M1070.7,1750.1c0,9.5,5.6,15.1,5.6,15.1h-75.5c0,0,5.6-5.6,5.6-15.1v-217
		c0-9.5-5.6-15.1-5.6-15.1h124.8c31,0.8,54.8,15.1,65.2,45.3c8,27.1,6.4,61.2-11.9,82.7c-25.4,34.2-108.9,28.6-108.9,28.6
		L1070.7,1750.1z M1069.9,1549.7v92.2c21.5,1.6,46.9,4,62-12.7c12.7-16.7,10.3-49.3,1.6-64.4
		C1119.2,1540.2,1069.9,1549.7,1069.9,1549.7L1069.9,1549.7z"/>
	<path class="st1" d="M834.6,505.8h849.1v849.1H834.6V505.8z"/>
	<path class="st0" d="M1360.1,788.1c0,0,6.4,7.2,6.4,18.3v124.8c-37.4-44.5-70.8-94.6-108.9-139.1c-14.3-17.5-42.1-46.9-52.5-55.7
		c-67.6-66-178.9-96.2-282.2-59.6v4c35.8-8,81.9-4.8,126.4,13.5c34.2,12.7,82.7,50.1,110.5,84.3c35.8,41.3,112.9,147.1,112.9,147.1
		c44.5,57.2,83.5,109.7,128.8,163.8v-283c0-11.1,6.4-18.3,6.4-18.3H1360.1z"/>
	<path class="st0" d="M1159,1071.9c0,0-6.4-7.2-6.4-17.5V928.8c37.4,44.5,70.8,94.6,108.9,139.1c14.3,17.5,41.3,46.9,51.7,55.7
		c68.4,66,178.9,96.2,283,59.6v-4c-35.8,8-81.9,4.8-127.2-13.5c-33.4-12.7-81.9-50.1-109.7-84.3c-36.6-41.3-112.9-147.1-112.9-147.1
		c-44.5-57.2-83.5-109.7-128.8-163.8v283.8c0,10.3-6.4,17.5-6.4,17.5H1159L1159,1071.9z M803.6,1910.7h16.7v81.9h-16.7V1910.7z
		 M865.6,1910.7h16.7v69.2h38.2v12.7h-54.9V1910.7z M1015.9,1968.7c7.2,8,15.9,13.5,28.6,13.5c8.7,0,16.7-5.6,16.7-12.7
		c0-18.3-47.7-5.6-47.7-35c0-15.1,15.1-25.5,33.4-25.5c10.3,0,17.5,3.2,25.4,8.8v16.7c-5.6-6.4-15.1-12.7-25.4-12.7
		c-8,0-16.7,4-16.7,11.1c0,18.3,46.1,4,46.1,35.8c0,13.5-11.9,25.5-31,25.5c-11.9,0-19.9-4-29.4-9.5V1968.7z M1116.8,1910.7h16.7
		v81.9h-16.7V1910.7z M1176.5,1968.7c7.1,8,15.9,13.5,27.8,13.5c9.5,0,16.7-5.6,16.7-12.7c0-18.3-46.9-5.6-46.9-35
		c0-15.1,15.1-25.5,33.4-25.5c10.3,0,17.5,3.2,25.4,8.8v16.7c-5.6-6.4-15.1-12.7-25.4-12.7c-8,0-16.7,4-16.7,11.1
		c0,18.3,46.1,4,46.1,35.8c0,13.5-11.9,25.5-31.8,25.5c-11.1,0-19.1-4-28.6-9.5L1176.5,1968.7L1176.5,1968.7z M1296.5,1923.4h-27.8
		v-12.7h73.2v12.7h-28.6v69.2h-16.7L1296.5,1923.4L1296.5,1923.4z M1377.6,1910.7h62v12.7h-45.3v23h45.3v11.2h-45.3v23h45.3v11.9
		h-62V1910.7L1377.6,1910.7z M1484.9,1910.7h27l22.3,61.2l22.3-61.2h27v81.9h-16.7v-70.8l-24.7,70.8h-15.9l-24.7-70.8h-0.8v70.8
		h-15.9L1484.9,1910.7L1484.9,1910.7z M1678.9,1958.4h-30.2l15.1-40.5L1678.9,1958.4z M1620.1,1992.6h15.9l8.8-22.3h38.1l8.7,22.3
		h16.7l-31.8-81.9h-24.6L1620.1,1992.6L1620.1,1992.6z"/>
</g>
</svg>
