<svg xmlns="http://www.w3.org/2000/svg" width="500" viewBox="0 0 375 75" height="100" version="1.0"><path d="M17.047 33.47c-1.711 0-3.18.633-4.406 1.89-1.23 1.262-1.844 2.778-1.844 4.547 0 1.813.613 3.352 1.844 4.61 1.226 1.261 2.695 1.89 4.406 1.89.812 0 1.582-.097 2.312-.297.739-.207 1.282-.414 1.625-.625l.454-.296 3.078 6.28c-.243.18-.575.4-1 .657-.43.25-1.403.594-2.922 1.031-1.524.446-3.153.672-4.89.672-3.856 0-7.243-1.351-10.157-4.062-2.918-2.72-4.375-5.97-4.375-9.75 0-3.82 1.457-7.102 4.375-9.844 2.914-2.75 6.3-4.125 10.156-4.125 1.738 0 3.344.203 4.813.61 1.468.406 2.507.82 3.125 1.234l.875.609-3.078 6.188c-1.125-.813-2.59-1.22-4.391-1.22Zm0 0" fill="#fff"/><path d="M45.536 26.814h10.453L35.364 66.36H24.927l9.046-17.39-12.421-22.156h10.437l7.313 13.453ZM69.448 33.47c-1.711 0-3.18.633-4.406 1.89-1.23 1.262-1.844 2.778-1.844 4.547 0 1.813.613 3.352 1.844 4.61 1.226 1.261 2.695 1.89 4.406 1.89.812 0 1.582-.097 2.312-.297.739-.207 1.282-.414 1.625-.625l.453-.296 3.079 6.28c-.243.18-.575.4-1 .657-.43.25-1.403.594-2.922 1.031-1.524.446-3.153.672-4.89.672-3.856 0-7.243-1.351-10.157-4.062-2.918-2.72-4.375-5.97-4.375-9.75 0-3.82 1.457-7.102 4.375-9.844 2.914-2.75 6.3-4.125 10.156-4.125 1.738 0 3.344.203 4.813.61 1.468.406 2.507.82 3.125 1.234l.875.609-3.079 6.188c-1.125-.813-2.59-1.22-4.39-1.22ZM78.03 53.064v-44h9.063v44ZM117.233 41.189H98.2c0 1.843.594 3.21 1.782 4.093 1.195.887 2.492 1.328 3.89 1.328 1.469 0 2.629-.191 3.485-.578.851-.394 1.828-1.172 2.921-2.328l6.547 3.266c-2.73 4.574-7.265 6.86-13.61 6.86-3.96 0-7.355-1.352-10.187-4.063-2.836-2.72-4.25-5.985-4.25-9.797 0-3.82 1.414-7.098 4.25-9.828 2.832-2.727 6.227-4.094 10.188-4.094 4.156 0 7.535 1.203 10.14 3.61 2.614 2.406 3.922 5.843 3.922 10.312 0 .617-.015 1.023-.046 1.219ZM98.45 36.173h9.985c-.211-1.363-.75-2.41-1.625-3.14-.868-.739-1.98-1.11-3.344-1.11-1.5 0-2.695.398-3.578 1.187-.887.782-1.367 1.805-1.438 3.063ZM135.094 53.064h-6.141l-14.063-26.25h10.438l6.39 14.171 6.297-14.171h6.235l6.297 14.171 6.406-14.171h10.437l-14.078 26.25h-6.14L141.14 39.5ZM168.664 49.814c-2.461-2.676-3.688-5.958-3.688-9.844 0-3.895 1.227-7.188 3.688-9.875 2.457-2.696 5.578-4.047 9.359-4.047 3.477 0 6.348 1.09 8.61 3.266v-2.5h9.046v26.25h-8.953v-2.97h-.094c-2.261 2.493-5.132 3.735-8.61 3.735-3.78 0-6.901-1.336-9.358-4.015Zm7.703-14.297c-1.18 1.156-1.766 2.64-1.766 4.453 0 1.804.563 3.277 1.688 4.422 1.125 1.148 2.609 1.718 4.453 1.718 1.77 0 3.226-.578 4.375-1.734 1.144-1.164 1.718-2.633 1.718-4.406 0-1.813-.59-3.297-1.765-4.453-1.18-1.164-2.621-1.75-4.328-1.75-1.742 0-3.2.586-4.375 1.75Zm0 0" fill="#fff"/><path d="M219.165 26.814h10.454L208.994 66.36h-10.438l9.047-17.39-12.422-22.156h10.438l7.312 13.453ZM243.077 33.47c-1.71 0-3.18.633-4.406 1.89-1.23 1.262-1.844 2.778-1.844 4.547 0 1.813.614 3.352 1.844 4.61 1.227 1.261 2.695 1.89 4.406 1.89.813 0 1.582-.097 2.313-.297.738-.207 1.281-.414 1.625-.625l.453-.296 3.078 6.28c-.242.18-.574.4-1 .657-.43.25-1.402.594-2.922 1.031-1.523.446-3.152.672-4.89.672-3.856 0-7.243-1.351-10.157-4.062-2.918-2.72-4.375-5.97-4.375-9.75 0-3.82 1.457-7.102 4.375-9.844 2.914-2.75 6.301-4.125 10.157-4.125 1.738 0 3.343.203 4.812.61 1.469.406 2.508.82 3.125 1.234l.875.609-3.078 6.188c-1.125-.813-2.59-1.22-4.39-1.22Zm0 0" fill="#fff"/><path d="M254.144 49.939c-2.918-2.594-4.375-5.915-4.375-9.97 0-4.062 1.516-7.394 4.547-10 3.04-2.613 6.797-3.921 11.266-3.921 4.406 0 8.113 1.312 11.125 3.937 3.02 2.625 4.531 5.954 4.531 9.985 0 4.023-1.476 7.34-4.422 9.953-2.949 2.605-6.695 3.906-11.234 3.906-4.711 0-8.523-1.297-11.438-3.89Zm7.016-14.422c-1.18 1.156-1.766 2.64-1.766 4.453 0 1.804.563 3.277 1.688 4.422 1.125 1.148 2.61 1.718 4.453 1.718 1.77 0 3.227-.578 4.375-1.734 1.145-1.164 1.719-2.633 1.719-4.406 0-1.813-.59-3.297-1.766-4.453-1.18-1.164-2.62-1.75-4.328-1.75-1.742 0-3.2.586-4.375 1.75ZM284.474 26.814v-5.579c.03-3.925.945-7.066 2.75-9.421 1.812-2.352 4.32-3.532 7.53-3.532 1.364 0 2.665.2 3.907.594 1.25.398 2.145.797 2.688 1.203l.875.563-3.172 6.39c-.813-.468-1.715-.703-2.703-.703-1.137 0-1.891.387-2.266 1.156-.375.762-.563 2.094-.563 4v5.329h6.047v6.906h-6.047v19.344h-9.046V33.72h-3.797v-6.906Zm0 0" fill="#fff"/><path d="M301.105 26.814v-5.579c.03-3.925.945-7.066 2.75-9.421 1.812-2.352 4.32-3.532 7.53-3.532 1.364 0 2.665.2 3.907.594 1.25.398 2.145.797 2.688 1.203l.875.563-3.172 6.39c-.813-.468-1.715-.703-2.703-.703-1.137 0-1.891.387-2.266 1.156-.375.762-.563 2.094-.563 4v5.329h6.047v6.906h-6.047v19.344h-9.046V33.72h-3.797v-6.906Zm0 0" fill="#fff"/><path d="M342.76 41.189h-19.03c0 1.843.593 3.21 1.78 4.093 1.196.887 2.493 1.328 3.89 1.328 1.47 0 2.63-.191 3.485-.578.852-.394 1.828-1.172 2.922-2.328l6.547 3.266c-2.73 4.574-7.266 6.86-13.61 6.86-3.96 0-7.355-1.352-10.187-4.063-2.836-2.72-4.25-5.985-4.25-9.797 0-3.82 1.414-7.098 4.25-9.828 2.832-2.727 6.227-4.094 10.188-4.094 4.156 0 7.535 1.203 10.14 3.61 2.614 2.406 3.922 5.843 3.922 10.312 0 .617-.015 1.023-.047 1.219Zm-18.78-5.016h9.983c-.21-1.363-.75-2.41-1.625-3.14-.867-.739-1.98-1.11-3.343-1.11-1.5 0-2.696.398-3.578 1.187-.887.782-1.368 1.805-1.438 3.063Zm0 0" fill="#fbbf24"/><path d="M371.059 41.189h-19.031c0 1.843.593 3.21 1.78 4.093 1.196.887 2.493 1.328 3.892 1.328 1.468 0 2.628-.191 3.484-.578.851-.394 1.828-1.172 2.922-2.328l6.547 3.266c-2.73 4.574-7.266 6.86-13.61 6.86-3.96 0-7.355-1.352-10.187-4.063-2.836-2.72-4.25-5.985-4.25-9.797 0-3.82 1.414-7.098 4.25-9.828 2.832-2.727 6.226-4.094 10.187-4.094 4.157 0 7.535 1.203 10.14 3.61 2.614 2.406 3.923 5.843 3.923 10.312 0 .617-.016 1.023-.047 1.219Zm-18.781-5.016h9.984c-.21-1.363-.75-2.41-1.625-3.14-.867-.739-1.98-1.11-3.344-1.11-1.5 0-2.695.398-3.578 1.187-.887.782-1.367 1.805-1.437 3.063Zm0 0" fill="#fbbf24"/></svg>