<svg width="145" height="52" viewBox="0 0 145 52" fill="none" xmlns="http://www.w3.org/2000/svg">
<path d="M11.5 32.9V40.1C11.5 41 11.7 41.7 12.1 42.2C12.5 42.7 13.1 43 13.7 43H16.6V44.7H13.8C12.7 44.7 11.7 44.3 10.9 43.5C10.1 42.7 9.7 41.6 9.7 40.1V32.9C9.7 31.6 9.5 30.3 9 29.2C8.6 28.1 8 27.2 7.3 26.5C6.6 25.8 5.7 25.2 4.8 24.8C3.9 24.4 2.9 24.2 1.8 24.2H0V22.5H1.9C3.2 22.5 4.4 22.7 5.5 23.2C6.7 23.7 7.7 24.3 8.6 25.2C9.5 26.1 10.2 27.2 10.7 28.5C11.3 29.9 11.5 31.3 11.5 32.9ZM8.1 32.9V40.1C8.1 42.1 8.7 43.6 9.8 44.7C10.9 45.8 12.3 46.4 13.9 46.4H16.7V48.1H13.9C11.8 48.1 10 47.4 8.6 45.9C7.1 44.5 6.4 42.5 6.4 40.1V32.9C6.4 31.2 6 29.9 5.2 29C4.4 28.1 3.3 27.6 2 27.6H0V25.9H1.9C3.6 25.9 5.1 26.5 6.3 27.8C7.5 29 8.1 30.7 8.1 32.9ZM4.7 32.9V40.1C4.7 43 5.6 45.4 7.4 47.1C9.2 48.9 11.4 49.8 13.9 49.8H16.8V51.5H14C12.1 51.5 10.3 51 8.6 50.1C6.9 49.2 5.6 47.9 4.6 46.1C3.6 44.3 3.1 42.3 3.1 40V32.8C3.1 32.1 3 31.6 2.8 31.4C2.6 31.2 2.3 31 1.9 31H0V29.3H1.8C2.6 29.3 3.3 29.6 3.8 30.2C4.4 30.8 4.7 31.7 4.7 32.9ZM4.6 21.8L2.9 21.6C2.9 21.3 3 21 3 20.7V11.5C3 9.2 3.5 7.2 4.5 5.4C5.5 3.6 6.9 2.3 8.5 1.4C10.1 0.5 11.9 0 13.9 0H16.7V1.7H13.8C11.3 1.7 9.1 2.6 7.3 4.4C5.5 6.2 4.6 8.5 4.6 11.4V20.6C4.7 21.1 4.6 21.5 4.6 21.8ZM7.7 23.2L6.1 22.4C6.3 21.6 6.3 21 6.3 20.7V11.5C6.3 9.1 7 7.1 8.5 5.7C10 4.3 11.7 3.5 13.8 3.5H16.6V5.2H13.8C12.2 5.2 10.8 5.8 9.7 6.9C8.6 8 8.1 9.6 8.1 11.5V20.7C8.1 21.5 8 22.3 7.7 23.2ZM10.5 25.6L9.2 24.3C9.6 23.2 9.8 22 9.8 20.7V11.5C9.8 10.1 10.2 9 11 8.1C11.8 7.4 12.7 7 13.9 7H16.7V8.7H13.8C13.1 8.7 12.6 9 12.2 9.5C11.8 10 11.6 10.7 11.6 11.6V20.8C11.5 22.5 11.2 24.1 10.5 25.6Z" fill="black"/>
<path d="M58.5 13.7L57 14.6C55.2 11.9 52.9 9.9 50 8.3C47.1 6.8 44 6 40.7 6C38 6 35.5 6.5 33 7.6C30.6 8.6 28.5 10 26.7 11.8C24.9 13.6 23.5 15.7 22.5 18.1C21.5 20.5 20.9 23.1 20.9 25.8C20.9 28.5 21.4 31 22.5 33.5C23.5 35.9 24.9 38 26.7 39.8C28.5 41.6 30.6 43 33 44C35.4 45 38 45.6 40.7 45.6C44 45.6 47.1 44.8 50 43.3C52.9 41.7 55.2 39.6 57 37L58.4 38C56.4 40.9 53.9 43.1 50.8 44.8C47.7 46.5 44.3 47.3 40.7 47.3C37.8 47.3 35 46.7 32.4 45.6C29.8 44.5 27.5 42.9 25.6 41C23.7 39.1 22.2 36.8 21 34.2C19.9 31.6 19.3 28.8 19.3 25.9C19.3 23 19.9 20.2 21 17.6C22.1 15 23.7 12.7 25.6 10.8C27.5 8.9 29.8 7.4 32.4 6.2C35 5 37.8 4.5 40.7 4.5C44.3 4.5 47.7 5.3 50.8 7C54 8.5 56.5 10.8 58.5 13.7ZM55.7 15.7L54.3 16.6C52.8 14.4 50.9 12.7 48.5 11.4C46.1 10.1 43.6 9.5 40.8 9.5C38.6 9.5 36.5 9.9 34.5 10.8C32.5 11.7 30.8 12.8 29.3 14.3C27.8 15.8 26.7 17.5 25.8 19.5C24.9 21.5 24.5 23.6 24.5 25.8C24.5 28 24.9 30.1 25.8 32.1C26.7 34.1 27.8 35.9 29.3 37.3C30.8 38.8 32.5 39.9 34.5 40.8C36.5 41.7 38.6 42.1 40.8 42.1C43.6 42.1 46.1 41.5 48.5 40.2C50.9 38.9 52.8 37.2 54.3 35L55.7 36C54 38.4 51.9 40.3 49.3 41.7C46.7 43.1 43.9 43.8 40.8 43.8C37.5 43.8 34.5 43 31.8 41.4C29 39.8 26.9 37.6 25.2 34.8C23.6 32 22.8 29 22.8 25.8C22.8 22.6 23.6 19.5 25.2 16.8C26.8 14 29 11.9 31.8 10.2C34.6 8.6 37.6 7.8 40.8 7.8C43.8 7.8 46.7 8.5 49.3 9.9C51.9 11.3 54 13.2 55.7 15.7ZM52.8 17.6L51.4 18.5C50.2 16.8 48.7 15.4 46.8 14.4C44.9 13.4 42.9 12.9 40.7 12.9C38.4 12.9 36.2 13.5 34.2 14.6C32.2 15.8 30.7 17.3 29.5 19.3C28.3 21.3 27.8 23.4 27.8 25.8C27.8 28.1 28.4 30.3 29.5 32.3C30.6 34.3 32.2 35.8 34.2 37C36.2 38.2 38.3 38.7 40.7 38.7C42.9 38.7 44.9 38.2 46.8 37.2C48.7 36.2 50.2 34.8 51.4 33.1L52.8 34.1C51.5 36.1 49.7 37.6 47.6 38.8C45.5 39.9 43.2 40.5 40.7 40.5C38.1 40.5 35.6 39.8 33.4 38.5C31.2 37.2 29.4 35.4 28.1 33.2C26.8 31 26.1 28.5 26.1 25.9C26.1 23.3 26.8 20.8 28.1 18.6C29.4 16.4 31.2 14.6 33.4 13.3C35.6 12 38.1 11.3 40.7 11.3C43.2 11.3 45.5 11.9 47.6 13C49.7 14.1 51.5 15.6 52.8 17.6ZM50 19.5L48.6 20.4C47.7 19.1 46.6 18.1 45.3 17.4C44 16.7 42.4 16.3 40.8 16.3C38.2 16.3 36 17.2 34.1 19.1C32.3 20.9 31.3 23.2 31.3 25.8C31.3 28.4 32.2 30.6 34.1 32.5C35.9 34.3 38.2 35.3 40.8 35.3C42.4 35.3 43.9 34.9 45.3 34.2C46.7 33.5 47.8 32.4 48.6 31.2L50 32.2C49 33.7 47.7 34.9 46 35.7C44.4 36.6 42.6 37 40.8 37C39.3 37 37.9 36.7 36.5 36.1C35.1 35.5 33.9 34.7 32.9 33.7C31.9 32.7 31.1 31.5 30.5 30.1C29.9 28.7 29.6 27.3 29.6 25.8C29.6 24.3 29.9 22.9 30.5 21.5C31.1 20.1 31.9 18.9 32.9 17.9C33.9 16.9 35.1 16.1 36.5 15.5C37.9 14.9 39.3 14.6 40.8 14.6C42.7 14.6 44.4 15 46.1 15.9C47.6 16.8 49 18 50 19.5Z" fill="black"/>
<path d="M77.7 21.5H74.8C73.6 21.5 72.7 21.2 72.2 20.6C71.7 20 71.4 19.1 71.4 18.1C71.4 15.8 73.1 14.7 76.5 14.7C79.7 14.7 82.1 15.2 83.7 16.1L82.3 17.1C81.2 16.6 79.2 16.3 76.4 16.3C75 16.3 74.1 16.5 73.6 16.8C73.2 17.1 73 17.5 73 18C73 18.5 73.1 19 73.4 19.3C73.7 19.6 74.1 19.8 74.8 19.8H77.8C79.9 19.8 81.9 20.2 83.6 20.9C85.3 21.6 86.7 22.6 87.8 23.9C88.9 25.2 89.8 26.6 90.3 28.3C90.9 29.9 91.2 31.7 91.2 33.6C91.2 35.1 91 36.6 90.6 37.9C90.2 39.3 89.5 40.5 88.7 41.7C87.8 42.8 86.8 43.8 85.6 44.7C84.4 45.5 82.9 46.2 81.3 46.7C79.6 47.2 77.8 47.4 75.9 47.4C72.8 47.4 70 46.9 67.3 46C64.6 45.1 62.4 43.8 60.6 42.1L62 41.1C63.6 42.6 65.6 43.7 68.1 44.5C70.5 45.3 73.1 45.7 75.9 45.7C78.1 45.7 80 45.4 81.8 44.8C83.6 44.2 85 43.3 86.1 42.2C87.2 41.1 88.1 39.8 88.7 38.4C89.3 37 89.6 35.4 89.6 33.7C89.6 31.5 89.2 29.5 88.3 27.7C87.4 25.9 86.1 24.5 84.2 23.4C82.3 22.3 80.2 21.5 77.7 21.5ZM74.8 30H77.4C78.6 30 79.5 30.3 80 31C80.5 31.6 80.8 32.5 80.8 33.5C80.8 35.8 79.1 36.9 75.7 36.9C72.5 36.9 70.1 36.4 68.4 35.5L69.8 34.5C70.9 35 72.9 35.3 75.7 35.3C77.1 35.3 78 35.1 78.5 34.8C79 34.5 79.2 34.1 79.2 33.5C79.2 33 79.1 32.6 78.8 32.2C78.5 31.9 78.1 31.7 77.4 31.7H74.8C72.6 31.7 70.6 31.3 68.9 30.6C67.1 29.9 65.7 28.9 64.5 27.6C63.4 26.3 62.5 24.9 61.9 23.2C61.3 21.7 61 20 61 18C61 16.5 61.2 15 61.6 13.7C62 12.3 62.7 11.1 63.5 9.90001C64.4 8.80001 65.4 7.80001 66.6 6.90001C67.8 6.00001 69.3 5.40001 70.9 4.90001C72.5 4.40001 74.4 4.20001 76.3 4.20001C79.4 4.20001 82.2 4.70001 84.9 5.60001C87.6 6.50001 89.8 7.80001 91.6 9.50001L90.2 10.5C88.6 9.00001 86.6 7.90001 84.1 7.10001C81.7 6.30001 79.1 5.90001 76.3 5.90001C74.1 5.90001 72.2 6.20001 70.4 6.80001C68.6 7.40001 67.2 8.30001 66.1 9.40001C65 10.5 64.1 11.8 63.5 13.2C62.9 14.6 62.6 16.2 62.6 17.9C62.6 20.1 63.1 22.2 64 23.9C64.9 25.7 66.3 27.1 68.1 28.2C70.1 29.5 72.3 30 74.8 30ZM74.8 23.2H77.5C80.7 23.2 83.2 24.2 85.1 26.2C86.9 28.2 87.8 30.6 87.8 33.5C87.8 36.5 86.7 38.9 84.6 40.9C82.5 42.9 79.5 43.8 75.7 43.8C73.2 43.8 70.8 43.5 68.6 42.8C66.4 42.1 64.6 41.1 63.1 39.8L64.4 38.7C65.7 39.8 67.3 40.6 69.3 41.2C71.3 41.8 73.4 42.1 75.7 42.1C79 42.1 81.6 41.3 83.4 39.7C85.2 38.1 86.1 36 86.1 33.5C86.1 31 85.4 29 83.9 27.4C82.4 25.8 80.3 25 77.5 25H74.8C72.5 25 70.7 24.4 69.6 23.1C68.5 21.8 67.9 20.2 67.9 18.1C67.9 16 68.6 14.4 70.1 13.1C71.5 11.8 73.7 11.2 76.6 11.2C78.6 11.2 80.5 11.4 82.2 11.9C83.9 12.4 85.4 13 86.5 13.9L85 15C83 13.6 80.2 13 76.5 13C74.1 13 72.4 13.5 71.3 14.4C70.2 15.3 69.6 16.6 69.6 18.1C69.6 19.7 70 20.9 70.8 21.8C71.6 22.7 72.9 23.2 74.8 23.2ZM74.8 26.6H77.4C79.7 26.6 81.5 27.2 82.6 28.5C83.8 29.8 84.3 31.4 84.3 33.4C84.3 35.4 83.6 37.1 82.1 38.4C80.7 39.7 78.5 40.3 75.6 40.3C73.6 40.3 71.7 40.1 70 39.6C68.3 39.1 66.8 38.5 65.7 37.6L67.1 36.6C69.1 38 71.9 38.6 75.7 38.6C78.1 38.6 79.8 38.1 80.9 37.2C82 36.3 82.6 35 82.6 33.5C82.6 32 82.2 30.7 81.4 29.8C80.6 28.9 79.2 28.4 77.4 28.4H74.8C71.5 28.4 69 27.4 67.2 25.5C65.4 23.6 64.5 21.1 64.5 18.1C64.5 15.1 65.6 12.7 67.7 10.7C69.8 8.80001 72.8 7.80001 76.6 7.80001C79.1 7.80001 81.5 8.10001 83.7 8.80001C85.9 9.50001 87.7 10.5 89.2 11.8L87.9 12.9C86.6 11.8 85 11 83 10.4C81 9.80001 78.9 9.50001 76.6 9.50001C73.3 9.50001 70.7 10.3 68.9 11.9C67.1 13.5 66.2 15.6 66.2 18.1C66.2 20.6 66.9 22.6 68.4 24.3C69.9 25.8 72 26.6 74.8 26.6Z" fill="black"/>
<path d="M110.9 21.5H108C106.8 21.5 105.9 21.2 105.4 20.6C104.9 20 104.6 19.1 104.6 18.1C104.6 15.8 106.3 14.7 109.7 14.7C112.9 14.7 115.3 15.2 116.9 16.1L115.5 17.1C114.4 16.6 112.4 16.3 109.6 16.3C108.2 16.3 107.3 16.5 106.8 16.8C106.3 17.1 106.1 17.5 106.1 18.1C106.1 18.7 106.2 19.1 106.5 19.4C106.8 19.7 107.2 19.9 107.9 19.9H110.9C113 19.9 115 20.3 116.7 21C118.4 21.7 119.8 22.7 120.9 24C122 25.3 122.9 26.7 123.4 28.4C124 30 124.3 31.8 124.3 33.7C124.3 35.2 124.1 36.7 123.7 38C123.3 39.4 122.6 40.6 121.8 41.8C120.9 42.9 119.9 43.9 118.7 44.8C117.5 45.6 116 46.3 114.4 46.8C112.7 47.3 110.9 47.5 109 47.5C105.9 47.5 103.1 47 100.4 46.1C97.7 45.2 95.5 43.9 93.7 42.2L95.1 41.2C96.7 42.7 98.7 43.8 101.2 44.6C103.6 45.4 106.2 45.8 109 45.8C111.2 45.8 113.1 45.5 114.9 44.9C116.7 44.3 118.1 43.4 119.2 42.3C120.3 41.2 121.2 39.9 121.8 38.5C122.4 37.1 122.7 35.5 122.7 33.8C122.7 31.6 122.3 29.6 121.4 27.8C120.5 26 119.2 24.6 117.3 23.5C115.4 22.4 113.4 21.5 110.9 21.5ZM108.1 30H110.7C111.9 30 112.8 30.3 113.3 31C113.8 31.6 114.1 32.5 114.1 33.5C114.1 35.8 112.4 36.9 109 36.9C105.8 36.9 103.4 36.4 101.7 35.5L103.1 34.5C104.2 35 106.2 35.3 109 35.3C110.4 35.3 111.3 35.1 111.8 34.8C112.3 34.5 112.5 34.1 112.5 33.5C112.5 33 112.4 32.6 112.1 32.2C111.8 31.9 111.4 31.7 110.7 31.7H108.1C105.9 31.7 103.9 31.3 102.2 30.6C100.4 29.9 99 28.9 97.8 27.6C96.7 26.3 95.8 24.9 95.2 23.2C94.6 21.5 94.3 19.8 94.3 17.9C94.3 16.4 94.5 14.9 94.9 13.6C95.3 12.2 96 11 96.8 9.80001C97.7 8.70001 98.7 7.70001 99.9 6.80001C101.1 6.00001 102.6 5.30001 104.2 4.80001C105.8 4.30001 107.7 4.10001 109.6 4.10001C112.7 4.10001 115.5 4.60001 118.2 5.50001C120.9 6.40001 123.1 7.70001 124.9 9.40001L123.5 10.4C121.9 8.90001 119.9 7.80001 117.4 7.00001C115 6.20001 112.4 5.80001 109.6 5.80001C107.4 5.80001 105.5 6.10001 103.7 6.70001C101.9 7.30001 100.5 8.20001 99.4 9.30001C98.3 10.4 97.4 11.7 96.8 13.1C96.2 14.5 95.9 16.1 95.9 17.8C95.9 20 96.4 22.1 97.3 23.8C98.2 25.6 99.6 27 101.4 28.1C103.3 29.5 105.5 30 108.1 30ZM108.1 23.2H110.8C114 23.2 116.5 24.2 118.4 26.2C120.3 28.2 121.1 30.6 121.1 33.5C121.1 36.5 120 38.9 117.9 40.9C115.8 42.9 112.8 43.8 109 43.8C106.5 43.8 104.1 43.5 101.9 42.8C99.7 42.1 97.9 41.1 96.4 39.8L97.7 38.7C99 39.8 100.6 40.6 102.6 41.2C104.6 41.8 106.7 42.1 109 42.1C112.3 42.1 114.9 41.3 116.7 39.7C118.5 38.1 119.4 36 119.4 33.5C119.4 31 118.7 29 117.2 27.4C115.7 25.8 113.6 25 110.8 25H108.1C105.8 25 104 24.4 102.9 23.1C101.8 21.8 101.2 20.2 101.2 18.1C101.2 16 101.9 14.4 103.4 13.1C104.8 11.8 107 11.2 109.9 11.2C111.9 11.2 113.8 11.4 115.5 11.9C117.2 12.4 118.7 13 119.8 13.9L118.4 14.9C116.4 13.5 113.6 12.9 109.9 12.9C107.5 12.9 105.8 13.4 104.7 14.3C103.6 15.2 103 16.5 103 18C103 19.6 103.4 20.8 104.2 21.7C105 22.6 106.2 23.2 108.1 23.2ZM108.1 26.6H110.7C113 26.6 114.8 27.2 115.9 28.5C117.1 29.8 117.6 31.4 117.6 33.4C117.6 35.4 116.9 37.1 115.4 38.4C114 39.7 111.8 40.3 108.9 40.3C106.9 40.3 105 40.1 103.3 39.6C101.6 39.1 100.1 38.5 99 37.6L100.4 36.6C102.4 38 105.2 38.6 109 38.6C111.4 38.6 113.1 38.1 114.2 37.2C115.3 36.3 115.9 35 115.9 33.5C115.9 32 115.5 30.7 114.7 29.8C113.9 28.9 112.5 28.4 110.7 28.4H108.1C104.8 28.4 102.3 27.4 100.5 25.5C98.7 23.6 97.8 21.1 97.8 18.1C97.8 15.1 98.9 12.7 101 10.7C103.1 8.70001 106.1 7.80001 109.9 7.80001C112.4 7.80001 114.8 8.10001 117 8.80001C119.2 9.50001 121 10.5 122.5 11.8L121.2 12.9C119.9 11.8 118.3 11 116.3 10.4C114.3 9.80001 112.2 9.50001 109.9 9.50001C106.6 9.50001 104 10.3 102.2 11.9C100.4 13.5 99.5 15.6 99.5 18.1C99.5 20.6 100.2 22.6 101.7 24.3C103.1 25.8 105.3 26.6 108.1 26.6Z" fill="black"/>
<path d="M139.6 18.7V11.5C139.6 8.6 138.7 6.2 136.9 4.5C135.1 2.8 132.9 1.8 130.4 1.8H127.5V0H130.3C132.2 0 134 0.5 135.7 1.4C137.3 2.3 138.7 3.6 139.7 5.4C140.7 7.2 141.2 9.2 141.2 11.5V18.7C141.2 19.4 141.3 19.9 141.5 20.1C141.7 20.3 142 20.5 142.4 20.5H144.2V22.2H142.4C141.6 22.2 140.9 21.9 140.4 21.3C139.9 20.7 139.6 19.8 139.6 18.7ZM136.2 18.7V11.5C136.2 9.5 135.6 8 134.5 6.9C133.4 5.8 132 5.2 130.4 5.2H127.6V3.4H130.4C132.5 3.4 134.3 4.1 135.7 5.6C137.2 7 137.9 9 137.9 11.4V18.6C137.9 20.3 138.3 21.6 139.1 22.5C139.9 23.4 141 23.9 142.3 23.9H144.3V25.6H142.4C140.7 25.6 139.2 25 138 23.7C136.8 22.5 136.2 20.8 136.2 18.7ZM132.8 18.7V11.5C132.8 10.6 132.6 9.9 132.2 9.4C131.8 8.9 131.2 8.6 130.6 8.6H127.7V6.9H130.5C131.6 6.9 132.6 7.3 133.4 8.1C134.2 8.9 134.6 10 134.6 11.5V18.7C134.6 20 134.8 21.3 135.3 22.4C135.7 23.5 136.3 24.4 137.1 25.1C137.8 25.8 138.7 26.4 139.6 26.8C140.5 27.2 141.5 27.4 142.6 27.4H144.5V29H142.6C141.3 29 140.1 28.8 139 28.3C137.8 27.8 136.8 27.1 135.9 26.3C135 25.4 134.3 24.3 133.8 23C133.1 21.7 132.8 20.2 132.8 18.7ZM133.8 26L135.1 27.3C134.7 28.4 134.5 29.6 134.5 30.9V40C134.5 41.4 134.1 42.5 133.3 43.4C132.5 44.2 131.6 44.6 130.4 44.6H127.6V42.9H130.5C131.2 42.9 131.7 42.6 132.1 42.1C132.5 41.6 132.7 40.9 132.7 40V30.8C132.8 29.1 133.1 27.5 133.8 26ZM136.6 28.4L138.2 29.2C138 30 138 30.6 138 30.9V40C138 42.4 137.3 44.4 135.8 45.8C134.3 47.2 132.6 48 130.5 48H127.7V46.3H130.5C132.1 46.3 133.5 45.7 134.6 44.6C135.7 43.5 136.3 41.9 136.3 40V30.8C136.2 30.1 136.3 29.2 136.6 28.4ZM139.7 29.7L141.4 29.9C141.3 30.2 141.3 30.5 141.3 30.8V40C141.3 42.3 140.8 44.3 139.8 46.1C138.8 47.9 137.4 49.2 135.8 50.1C134.2 51 132.4 51.5 130.4 51.5H127.6V49.8H130.5C133 49.8 135.2 48.9 137 47.1C138.8 45.3 139.7 43 139.7 40.1V30.9C139.6 30.4 139.7 30 139.7 29.7Z" fill="black"/>
</svg>
