<svg xmlns="http://www.w3.org/2000/svg" xmlns:xlink="http://www.w3.org/1999/xlink" width="500" zoomAndPan="magnify" viewBox="0 0 375 75" height="100" preserveAspectRatio="xMidYMid meet" xmlns:v="https://vecta.io/nano"><defs><clipPath id="A"><path d="M251.508 24.75h30v30h-30zm0 0" clip-rule="nonzero"/></clipPath><path id="B" d="M30.731 47.688c-1.297 2.309-4.223 3.883-7.32 3.883-5.914 0-9.461-4.785-9.461-12.781s3.434-12.84 9.234-12.84c2.309 0 4.168.73 5.406 2.082-.223-.055-.508-.113-.73-.113-2.367 0-4.113 1.746-4.113 4s1.746 3.941 4.113 3.941c2.195 0 3.887-1.691 3.887-3.941 0-4.449-4.844-7.773-11.098-7.773-8.898 0-15.543 6.309-15.543 14.645 0 8.277 6.59 14.641 15.602 14.641 5.238 0 9.629-2.141 11.207-5.012zm0 0"/><path id="C" d="M121.273 41.774c-2.367 0-4.113 1.746-4.113 3.941 0 2.309 1.746 4 4 4h.227c-1.41 1.238-3.605 1.969-6.082 1.969-6.254 0-9.855-4.504-9.855-13.852h20.105c0-7.773-5.859-13.687-13.969-13.687-8.336 0-14.98 6.195-14.98 14.586s6.703 14.699 16.164 14.699c6.813 0 12.391-3.32 12.391-7.715 0-2.195-1.691-3.941-3.887-3.941zm-9.629-16.5c3.434 0 5.629 4.223 5.801 11.43h-11.996c.223-6.645 2.531-11.43 6.195-11.43zm0 0"/><path id="D" d="M296.79 11.755c-6.59 0-11.547 4.281-11.547 9.855v3.098h-3.379v1.129h3.379v27.031h8.617V25.837h5.746v-1.129h-5.746v-5.629c0-3.379 2.309-5.746 5.859-5.746.844 0 1.633.168 2.309.395-2.027.113-3.551 1.691-3.551 3.66 0 2.141 1.637 3.719 3.832 3.719 2.027 0 3.605-1.578 3.605-3.719 0-3.211-3.945-5.633-9.125-5.633zm0 0"/></defs><g fill="#fff"><use xlink:href="#B"/><path d="M56.915 24.708l-8.391 19.207-8.223-19.207h-9.125L44.13 54.165l-3.324 7.547c-.898 2.137-2.531 2.871-4.391 2.984 1.352-.621 2.195-1.973 2.195-3.605 0-2.254-1.633-3.941-3.828-3.941-2.367 0-4.168 1.688-4.168 3.941 0 2.59 2.59 4.73 5.461 4.73 2.535 0 4.73-.844 6.195-4.055l16.219-37.059zm0 0"/><use xlink:href="#B" x="51.69"/><path d="M85.796 52.868h8.617V11.755l-8.617 1.465zm0 0"/><use xlink:href="#C"/><path d="M168.122 24.708l-8.559 19.602-8.449-19.602h-9.121l4.336 9.914-4.223 9.629-8.449-19.543h-9.125l12.336 28.16h3.039l7.211-16.445 7.207 16.445h3.043l12.332-28.16zm13.905-.563c-6.812 0-12.109 2.93-12.109 6.758 0 2.254 1.746 3.941 4.168 3.941 2.141 0 3.832-1.687 3.832-3.941 0-2.027-1.352-3.547-3.156-3.887 1.352-.898 3.211-1.461 5.184-1.461 4.559 0 7.375 2.645 7.375 6.758v6.813c-1.574-1.07-4.844-1.801-7.883-1.801-6.758 0-11.715 3.492-11.715 8.164 0 4.508 4.281 7.941 9.742 7.941 3.941 0 7.773-1.801 9.855-4.504v3.941h8.617V34.563c0-5.91-5.801-10.418-13.91-10.418zm-.449 26.414c-3.043 0-5.012-2.309-5.012-5.687 0-3.66 2.309-5.859 6.082-5.859 1.855 0 3.66.508 4.672 1.352v6.984c-1.293 1.973-3.434 3.211-5.742 3.211zm40.598-25.851l-8.391 19.207-8.223-19.207h-9.125l12.953 29.457-3.324 7.547c-.898 2.137-2.531 2.871-4.391 2.984 1.352-.621 2.195-1.973 2.195-3.605 0-2.254-1.633-3.941-3.828-3.941-2.367 0-4.168 1.688-4.168 3.941 0 2.59 2.59 4.73 5.461 4.73 2.535 0 4.73-.844 6.195-4.055l16.219-37.059zm0 0"/><use xlink:href="#B" x="216.951"/><use xlink:href="#D"/><use xlink:href="#D" x="16.103"/></g><g fill="#fbbf24"><use xlink:href="#C" x="218.262"/><use xlink:href="#C" x="247.655"/></g><g clip-path="url(#A)"><path fill="#fbbf24" d="M268.766 50.438c-.316.117-.562.004-.703-.203-.059-.031-.121-.062-.176-.113-2.836-2.461-3.016-5.816-2.105-9.254.926-3.492 2.895-7.531 1.238-11.094-.344-.734.629-1.379 1.082-.863a.69.69 0 0 1 .828-.148c7.465 3.703 8.113 18.5-.164 21.676zm-2.391.367c-4.574.285-7.262-4.828-7.93-8.711-.473-2.758-.012-5.613 1.207-8.129.559-1.156 1.25-2.527 2.242-3.383.887-.77 1.934-1.148 2.957-1.68.41-.215.793.004.957.32.16.035.305.141.402.34 1.738 3.531-.207 6.992-.895 10.512-.547 2.793-.98 7.125 1.199 9.348l.008.012c.734.102.68 1.32-.148 1.371zm.133-26.055c-8.285 0-15 6.715-15 15s6.715 15 15 15 15-6.715 15-15-6.719-15-15-15"/></g></svg>