<svg xmlns="http://www.w3.org/2000/svg" xmlns:xlink="http://www.w3.org/1999/xlink" width="700" zoomAndPan="magnify" viewBox="0 0 525 74.999997" height="100" preserveAspectRatio="xMidYMid meet" version="1.0"><defs><g/></defs><g fill="#ffffff" fill-opacity="1"><g transform="translate(3.75001, 52.323465)"><g><path d="M 18.9375 -21.796875 C 17.039062 -21.796875 15.410156 -21.09375 14.046875 -19.6875 C 12.679688 -18.28125 12 -16.59375 12 -14.625 C 12 -12.613281 12.679688 -10.90625 14.046875 -9.5 C 15.410156 -8.09375 17.039062 -7.390625 18.9375 -7.390625 C 19.851562 -7.390625 20.71875 -7.503906 21.53125 -7.734375 C 22.34375 -7.960938 22.941406 -8.191406 23.328125 -8.421875 L 23.84375 -8.765625 L 27.25 -1.765625 C 26.988281 -1.578125 26.617188 -1.335938 26.140625 -1.046875 C 25.671875 -0.765625 24.585938 -0.378906 22.890625 0.109375 C 21.203125 0.609375 19.394531 0.859375 17.46875 0.859375 C 13.175781 0.859375 9.410156 -0.644531 6.171875 -3.65625 C 2.929688 -6.675781 1.3125 -10.289062 1.3125 -14.5 C 1.3125 -18.75 2.929688 -22.398438 6.171875 -25.453125 C 9.410156 -28.503906 13.175781 -30.03125 17.46875 -30.03125 C 19.394531 -30.03125 21.175781 -29.800781 22.8125 -29.34375 C 24.445312 -28.894531 25.601562 -28.441406 26.28125 -27.984375 L 27.25 -27.3125 L 23.84375 -20.421875 C 22.582031 -21.335938 20.945312 -21.796875 18.9375 -21.796875 Z M 18.9375 -21.796875 "/></g></g></g><g fill="#ffffff" fill-opacity="1"><g transform="translate(28.831674, 52.323465)"><g><path d="M 25.546875 -29.1875 L 37.15625 -29.1875 L 14.21875 14.796875 L 2.609375 14.796875 L 12.6875 -4.546875 L -1.140625 -29.1875 L 10.46875 -29.1875 L 18.609375 -14.21875 Z M 25.546875 -29.1875 "/></g></g></g><g fill="#ffffff" fill-opacity="1"><g transform="translate(61.989782, 52.323465)"><g><path d="M 18.9375 -21.796875 C 17.039062 -21.796875 15.410156 -21.09375 14.046875 -19.6875 C 12.679688 -18.28125 12 -16.59375 12 -14.625 C 12 -12.613281 12.679688 -10.90625 14.046875 -9.5 C 15.410156 -8.09375 17.039062 -7.390625 18.9375 -7.390625 C 19.851562 -7.390625 20.71875 -7.503906 21.53125 -7.734375 C 22.34375 -7.960938 22.941406 -8.191406 23.328125 -8.421875 L 23.84375 -8.765625 L 27.25 -1.765625 C 26.988281 -1.578125 26.617188 -1.335938 26.140625 -1.046875 C 25.671875 -0.765625 24.585938 -0.378906 22.890625 0.109375 C 21.203125 0.609375 19.394531 0.859375 17.46875 0.859375 C 13.175781 0.859375 9.410156 -0.644531 6.171875 -3.65625 C 2.929688 -6.675781 1.3125 -10.289062 1.3125 -14.5 C 1.3125 -18.75 2.929688 -22.398438 6.171875 -25.453125 C 9.410156 -28.503906 13.175781 -30.03125 17.46875 -30.03125 C 19.394531 -30.03125 21.175781 -29.800781 22.8125 -29.34375 C 24.445312 -28.894531 25.601562 -28.441406 26.28125 -27.984375 L 27.25 -27.3125 L 23.84375 -20.421875 C 22.582031 -21.335938 20.945312 -21.796875 18.9375 -21.796875 Z M 18.9375 -21.796875 "/></g></g></g><g fill="#ffffff" fill-opacity="1"><g transform="translate(87.071444, 52.323465)"><g><path d="M 3.40625 0 L 3.40625 -48.921875 L 13.484375 -48.921875 L 13.484375 0 Z M 3.40625 0 "/></g></g></g><g fill="#ffffff" fill-opacity="1"><g transform="translate(101.119081, 52.323465)"><g><path d="M 32.9375 -13.203125 L 11.78125 -13.203125 C 11.78125 -11.148438 12.441406 -9.628906 13.765625 -8.640625 C 15.097656 -7.660156 16.539062 -7.171875 18.09375 -7.171875 C 19.71875 -7.171875 21.003906 -7.390625 21.953125 -7.828125 C 22.898438 -8.265625 23.984375 -9.125 25.203125 -10.40625 L 32.484375 -6.765625 C 29.453125 -1.679688 24.410156 0.859375 17.359375 0.859375 C 12.953125 0.859375 9.175781 -0.644531 6.03125 -3.65625 C 2.882812 -6.675781 1.3125 -10.3125 1.3125 -14.5625 C 1.3125 -18.8125 2.882812 -22.453125 6.03125 -25.484375 C 9.175781 -28.515625 12.953125 -30.03125 17.359375 -30.03125 C 21.984375 -30.03125 25.742188 -28.691406 28.640625 -26.015625 C 31.546875 -23.347656 33 -19.53125 33 -14.5625 C 33 -13.882812 32.976562 -13.429688 32.9375 -13.203125 Z M 12.0625 -18.78125 L 23.15625 -18.78125 C 22.925781 -20.289062 22.328125 -21.453125 21.359375 -22.265625 C 20.390625 -23.085938 19.148438 -23.5 17.640625 -23.5 C 15.972656 -23.5 14.644531 -23.0625 13.65625 -22.1875 C 12.664062 -21.3125 12.132812 -20.175781 12.0625 -18.78125 Z M 12.0625 -18.78125 "/></g></g></g><g fill="#ffffff" fill-opacity="1"><g transform="translate(132.570888, 52.323465)"><g><path d="M 21.328125 0 L 14.5 0 L -1.140625 -29.1875 L 10.46875 -29.1875 L 17.578125 -13.421875 L 24.578125 -29.1875 L 31.515625 -29.1875 L 38.515625 -13.421875 L 45.625 -29.1875 L 57.234375 -29.1875 L 41.59375 0 L 34.765625 0 L 28.046875 -15.078125 Z M 21.328125 0 "/></g></g></g><g fill="#ffffff" fill-opacity="1"><g transform="translate(185.806371, 52.323465)"><g><path d="M 5.40625 -3.609375 C 2.675781 -6.585938 1.3125 -10.238281 1.3125 -14.5625 C 1.3125 -18.882812 2.675781 -22.539062 5.40625 -25.53125 C 8.132812 -28.53125 11.601562 -30.03125 15.8125 -30.03125 C 19.6875 -30.03125 22.875 -28.816406 25.375 -26.390625 L 25.375 -29.1875 L 35.4375 -29.1875 L 35.4375 0 L 25.484375 0 L 25.484375 -3.296875 L 25.375 -3.296875 C 22.875 -0.523438 19.6875 0.859375 15.8125 0.859375 C 11.601562 0.859375 8.132812 -0.628906 5.40625 -3.609375 Z M 13.953125 -19.515625 C 12.648438 -18.222656 12 -16.570312 12 -14.5625 C 12 -12.550781 12.625 -10.910156 13.875 -9.640625 C 15.132812 -8.367188 16.785156 -7.734375 18.828125 -7.734375 C 20.804688 -7.734375 22.425781 -8.378906 23.6875 -9.671875 C 24.957031 -10.960938 25.59375 -12.59375 25.59375 -14.5625 C 25.59375 -16.570312 24.9375 -18.222656 23.625 -19.515625 C 22.320312 -20.804688 20.722656 -21.453125 18.828125 -21.453125 C 16.890625 -21.453125 15.265625 -20.804688 13.953125 -19.515625 Z M 13.953125 -19.515625 "/></g></g></g><g fill="#ffffff" fill-opacity="1"><g transform="translate(221.808293, 52.323465)"><g><path d="M 25.546875 -29.1875 L 37.15625 -29.1875 L 14.21875 14.796875 L 2.609375 14.796875 L 12.6875 -4.546875 L -1.140625 -29.1875 L 10.46875 -29.1875 L 18.609375 -14.21875 Z M 25.546875 -29.1875 "/></g></g></g><g fill="#ffffff" fill-opacity="1"><g transform="translate(254.966408, 52.323465)"><g><path d="M 18.9375 -21.796875 C 17.039062 -21.796875 15.410156 -21.09375 14.046875 -19.6875 C 12.679688 -18.28125 12 -16.59375 12 -14.625 C 12 -12.613281 12.679688 -10.90625 14.046875 -9.5 C 15.410156 -8.09375 17.039062 -7.390625 18.9375 -7.390625 C 19.851562 -7.390625 20.71875 -7.503906 21.53125 -7.734375 C 22.34375 -7.960938 22.941406 -8.191406 23.328125 -8.421875 L 23.84375 -8.765625 L 27.25 -1.765625 C 26.988281 -1.578125 26.617188 -1.335938 26.140625 -1.046875 C 25.671875 -0.765625 24.585938 -0.378906 22.890625 0.109375 C 21.203125 0.609375 19.394531 0.859375 17.46875 0.859375 C 13.175781 0.859375 9.410156 -0.644531 6.171875 -3.65625 C 2.929688 -6.675781 1.3125 -10.289062 1.3125 -14.5 C 1.3125 -18.75 2.929688 -22.398438 6.171875 -25.453125 C 9.410156 -28.503906 13.175781 -30.03125 17.46875 -30.03125 C 19.394531 -30.03125 21.175781 -29.800781 22.8125 -29.34375 C 24.445312 -28.894531 25.601562 -28.441406 26.28125 -27.984375 L 27.25 -27.3125 L 23.84375 -20.421875 C 22.582031 -21.335938 20.945312 -21.796875 18.9375 -21.796875 Z M 18.9375 -21.796875 "/></g></g></g><g fill="#ffffff" fill-opacity="1"><g transform="translate(280.048077, 52.323465)"><g><path d="M 6.171875 -3.46875 C 2.929688 -6.351562 1.3125 -10.050781 1.3125 -14.5625 C 1.3125 -19.070312 3 -22.773438 6.375 -25.671875 C 9.75 -28.578125 13.921875 -30.03125 18.890625 -30.03125 C 23.785156 -30.03125 27.910156 -28.570312 31.265625 -25.65625 C 34.617188 -22.738281 36.296875 -19.039062 36.296875 -14.5625 C 36.296875 -10.082031 34.65625 -6.390625 31.375 -3.484375 C 28.09375 -0.585938 23.929688 0.859375 18.890625 0.859375 C 13.648438 0.859375 9.410156 -0.582031 6.171875 -3.46875 Z M 13.953125 -19.515625 C 12.648438 -18.222656 12 -16.570312 12 -14.5625 C 12 -12.550781 12.625 -10.910156 13.875 -9.640625 C 15.132812 -8.367188 16.785156 -7.734375 18.828125 -7.734375 C 20.804688 -7.734375 22.425781 -8.378906 23.6875 -9.671875 C 24.957031 -10.960938 25.59375 -12.59375 25.59375 -14.5625 C 25.59375 -16.570312 24.9375 -18.222656 23.625 -19.515625 C 22.320312 -20.804688 20.722656 -21.453125 18.828125 -21.453125 C 16.890625 -21.453125 15.265625 -20.804688 13.953125 -19.515625 Z M 13.953125 -19.515625 "/></g></g></g><g fill="#ffffff" fill-opacity="1"><g transform="translate(314.798727, 52.323465)"><g><path d="M 5.125 -29.1875 L 5.125 -35.390625 C 5.15625 -39.742188 6.175781 -43.226562 8.1875 -45.84375 C 10.195312 -48.46875 12.988281 -49.78125 16.5625 -49.78125 C 18.070312 -49.78125 19.519531 -49.5625 20.90625 -49.125 C 22.289062 -48.6875 23.285156 -48.238281 23.890625 -47.78125 L 24.859375 -47.15625 L 21.328125 -40.046875 C 20.421875 -40.578125 19.414062 -40.84375 18.3125 -40.84375 C 17.0625 -40.84375 16.226562 -40.414062 15.8125 -39.5625 C 15.394531 -38.707031 15.1875 -37.222656 15.1875 -35.109375 L 15.1875 -29.1875 L 21.90625 -29.1875 L 21.90625 -21.5 L 15.1875 -21.5 L 15.1875 0 L 5.125 0 L 5.125 -21.5 L 0.90625 -21.5 L 0.90625 -29.1875 Z M 5.125 -29.1875 "/></g></g></g><g fill="#ffffff" fill-opacity="1"><g transform="translate(333.282713, 52.323465)"><g><path d="M 5.125 -29.1875 L 5.125 -35.390625 C 5.15625 -39.742188 6.175781 -43.226562 8.1875 -45.84375 C 10.195312 -48.46875 12.988281 -49.78125 16.5625 -49.78125 C 18.070312 -49.78125 19.519531 -49.5625 20.90625 -49.125 C 22.289062 -48.6875 23.285156 -48.238281 23.890625 -47.78125 L 24.859375 -47.15625 L 21.328125 -40.046875 C 20.421875 -40.578125 19.414062 -40.84375 18.3125 -40.84375 C 17.0625 -40.84375 16.226562 -40.414062 15.8125 -39.5625 C 15.394531 -38.707031 15.1875 -37.222656 15.1875 -35.109375 L 15.1875 -29.1875 L 21.90625 -29.1875 L 21.90625 -21.5 L 15.1875 -21.5 L 15.1875 0 L 5.125 0 L 5.125 -21.5 L 0.90625 -21.5 L 0.90625 -29.1875 Z M 5.125 -29.1875 "/></g></g></g><g fill="#ffffff" fill-opacity="1"><g transform="translate(351.766699, 52.323465)"><g><path d="M 32.9375 -13.203125 L 11.78125 -13.203125 C 11.78125 -11.148438 12.441406 -9.628906 13.765625 -8.640625 C 15.097656 -7.660156 16.539062 -7.171875 18.09375 -7.171875 C 19.71875 -7.171875 21.003906 -7.390625 21.953125 -7.828125 C 22.898438 -8.265625 23.984375 -9.125 25.203125 -10.40625 L 32.484375 -6.765625 C 29.453125 -1.679688 24.410156 0.859375 17.359375 0.859375 C 12.953125 0.859375 9.175781 -0.644531 6.03125 -3.65625 C 2.882812 -6.675781 1.3125 -10.3125 1.3125 -14.5625 C 1.3125 -18.8125 2.882812 -22.453125 6.03125 -25.484375 C 9.175781 -28.515625 12.953125 -30.03125 17.359375 -30.03125 C 21.984375 -30.03125 25.742188 -28.691406 28.640625 -26.015625 C 31.546875 -23.347656 33 -19.53125 33 -14.5625 C 33 -13.882812 32.976562 -13.429688 32.9375 -13.203125 Z M 12.0625 -18.78125 L 23.15625 -18.78125 C 22.925781 -20.289062 22.328125 -21.453125 21.359375 -22.265625 C 20.390625 -23.085938 19.148438 -23.5 17.640625 -23.5 C 15.972656 -23.5 14.644531 -23.0625 13.65625 -22.1875 C 12.664062 -21.3125 12.132812 -20.175781 12.0625 -18.78125 Z M 12.0625 -18.78125 "/></g></g></g><g fill="#ffffff" fill-opacity="1"><g transform="translate(383.218506, 52.323465)"><g><path d="M 32.9375 -13.203125 L 11.78125 -13.203125 C 11.78125 -11.148438 12.441406 -9.628906 13.765625 -8.640625 C 15.097656 -7.660156 16.539062 -7.171875 18.09375 -7.171875 C 19.71875 -7.171875 21.003906 -7.390625 21.953125 -7.828125 C 22.898438 -8.265625 23.984375 -9.125 25.203125 -10.40625 L 32.484375 -6.765625 C 29.453125 -1.679688 24.410156 0.859375 17.359375 0.859375 C 12.953125 0.859375 9.175781 -0.644531 6.03125 -3.65625 C 2.882812 -6.675781 1.3125 -10.3125 1.3125 -14.5625 C 1.3125 -18.8125 2.882812 -22.453125 6.03125 -25.484375 C 9.175781 -28.515625 12.953125 -30.03125 17.359375 -30.03125 C 21.984375 -30.03125 25.742188 -28.691406 28.640625 -26.015625 C 31.546875 -23.347656 33 -19.53125 33 -14.5625 C 33 -13.882812 32.976562 -13.429688 32.9375 -13.203125 Z M 12.0625 -18.78125 L 23.15625 -18.78125 C 22.925781 -20.289062 22.328125 -21.453125 21.359375 -22.265625 C 20.390625 -23.085938 19.148438 -23.5 17.640625 -23.5 C 15.972656 -23.5 14.644531 -23.0625 13.65625 -22.1875 C 12.664062 -21.3125 12.132812 -20.175781 12.0625 -18.78125 Z M 12.0625 -18.78125 "/></g></g></g><g fill="#fbbf24" fill-opacity="1"><g transform="translate(414.681485, 52.323465)"><g><path d="M 9.90625 -12.171875 C 11.71875 -12.171875 13.257812 -11.535156 14.53125 -10.265625 C 15.800781 -8.992188 16.4375 -7.445312 16.4375 -5.625 C 16.4375 -3.84375 15.800781 -2.316406 14.53125 -1.046875 C 13.257812 0.222656 11.71875 0.859375 9.90625 0.859375 C 8.113281 0.859375 6.582031 0.222656 5.3125 -1.046875 C 4.039062 -2.316406 3.40625 -3.84375 3.40625 -5.625 C 3.40625 -7.445312 4.039062 -8.992188 5.3125 -10.265625 C 6.582031 -11.535156 8.113281 -12.171875 9.90625 -12.171875 Z M 9.90625 -12.171875 "/></g></g></g><g fill="#ffffff" fill-opacity="1"><g transform="translate(431.690832, 52.323465)"><g><path d="M 3.40625 0 L 3.40625 -29.1875 L 13.484375 -29.1875 L 13.484375 -26.109375 L 13.59375 -26.109375 C 16.207031 -28.722656 18.992188 -30.03125 21.953125 -30.03125 C 23.398438 -30.03125 24.832031 -29.84375 26.25 -29.46875 C 27.675781 -29.09375 29.039062 -28.503906 30.34375 -27.703125 C 31.65625 -26.910156 32.71875 -25.78125 33.53125 -24.3125 C 34.351562 -22.851562 34.765625 -21.160156 34.765625 -19.234375 L 34.765625 0 L 24.6875 0 L 24.6875 -16.5 C 24.6875 -18.019531 24.203125 -19.347656 23.234375 -20.484375 C 22.273438 -21.617188 21.015625 -22.1875 19.453125 -22.1875 C 17.941406 -22.1875 16.566406 -21.597656 15.328125 -20.421875 C 14.097656 -19.242188 13.484375 -17.9375 13.484375 -16.5 L 13.484375 0 Z M 3.40625 0 "/></g></g></g><g fill="#ffffff" fill-opacity="1"><g transform="translate(466.441474, 52.323465)"><g><path d="M 32.9375 -13.203125 L 11.78125 -13.203125 C 11.78125 -11.148438 12.441406 -9.628906 13.765625 -8.640625 C 15.097656 -7.660156 16.539062 -7.171875 18.09375 -7.171875 C 19.71875 -7.171875 21.003906 -7.390625 21.953125 -7.828125 C 22.898438 -8.265625 23.984375 -9.125 25.203125 -10.40625 L 32.484375 -6.765625 C 29.453125 -1.679688 24.410156 0.859375 17.359375 0.859375 C 12.953125 0.859375 9.175781 -0.644531 6.03125 -3.65625 C 2.882812 -6.675781 1.3125 -10.3125 1.3125 -14.5625 C 1.3125 -18.8125 2.882812 -22.453125 6.03125 -25.484375 C 9.175781 -28.515625 12.953125 -30.03125 17.359375 -30.03125 C 21.984375 -30.03125 25.742188 -28.691406 28.640625 -26.015625 C 31.546875 -23.347656 33 -19.53125 33 -14.5625 C 33 -13.882812 32.976562 -13.429688 32.9375 -13.203125 Z M 12.0625 -18.78125 L 23.15625 -18.78125 C 22.925781 -20.289062 22.328125 -21.453125 21.359375 -22.265625 C 20.390625 -23.085938 19.148438 -23.5 17.640625 -23.5 C 15.972656 -23.5 14.644531 -23.0625 13.65625 -22.1875 C 12.664062 -21.3125 12.132812 -20.175781 12.0625 -18.78125 Z M 12.0625 -18.78125 "/></g></g></g><g fill="#ffffff" fill-opacity="1"><g transform="translate(497.893289, 52.323465)"><g><path d="M 5.125 -29.1875 L 5.125 -40.046875 L 15.1875 -40.046875 L 15.1875 -29.1875 L 21.328125 -29.1875 L 21.328125 -21.5 L 15.1875 -21.5 L 15.1875 -12.234375 C 15.1875 -9.535156 15.945312 -8.1875 17.46875 -8.1875 C 17.84375 -8.1875 18.238281 -8.257812 18.65625 -8.40625 C 19.070312 -8.5625 19.394531 -8.71875 19.625 -8.875 L 19.96875 -9.109375 L 22.46875 -0.96875 C 20.3125 0.25 17.847656 0.859375 15.078125 0.859375 C 13.179688 0.859375 11.550781 0.523438 10.1875 -0.140625 C 8.820312 -0.804688 7.785156 -1.695312 7.078125 -2.8125 C 6.378906 -3.9375 5.878906 -5.113281 5.578125 -6.34375 C 5.273438 -7.570312 5.125 -8.890625 5.125 -10.296875 L 5.125 -21.5 L 0.90625 -21.5 L 0.90625 -29.1875 Z M 5.125 -29.1875 "/></g></g></g></svg>