<svg xmlns="http://www.w3.org/2000/svg" xmlns:xlink="http://www.w3.org/1999/xlink" width="500" zoomAndPan="magnify" viewBox="0 0 375 112.499997" height="150" preserveAspectRatio="xMidYMid meet" version="1.0"><defs><g/><clipPath id="344807913f"><path d="M 16 2.875 L 130.753906 2.875 L 130.753906 108.90625 L 16 108.90625 Z M 16 2.875 " clip-rule="nonzero"/></clipPath><clipPath id="fcb221af37"><path d="M 0.828125 65 L 22 65 L 22 85 L 0.828125 85 Z M 0.828125 65 " clip-rule="nonzero"/></clipPath></defs><path fill="#ffffff" d="M 125.265625 62.40625 C 124.78125 62.03125 124.191406 61.765625 123.601562 61.550781 C 135.375 49.375 124.136719 36.605469 124.136719 36.605469 C 120.640625 33.335938 118.8125 28.023438 121.019531 23.734375 C 121.878906 22.070312 122.203125 18.367188 118.976562 15.363281 C 115.101562 11.769531 108.113281 9.035156 97.734375 11.609375 C 93.164062 12.738281 88.429688 11.34375 84.933594 8.230469 C 82.300781 5.871094 78.320312 4.207031 72.40625 4.691406 C 63.261719 5.386719 36.914062 17.082031 38.902344 33.871094 C 39.386719 37.785156 41.589844 39.933594 44.871094 41.058594 C 44.765625 41.378906 44.65625 41.808594 44.441406 42.347656 C 43.851562 42.398438 43.527344 42.453125 43.472656 42.453125 C 41.808594 42.722656 40.625 44.277344 40.894531 45.941406 C 41.054688 47.066406 41.808594 47.925781 42.828125 48.355469 C 39.332031 49.964844 36.859375 53.558594 36.859375 57.632812 C 36.859375 60.585938 38.097656 63.210938 40.140625 65.089844 C 40.03125 66.214844 39.976562 67.394531 39.976562 68.523438 C 37.074219 69.59375 34.761719 71.472656 33.417969 73.941406 C 31.964844 76.570312 31.804688 79.519531 32.933594 81.664062 C 33.792969 83.273438 35.675781 84.347656 38.148438 84.667969 C 38.6875 84.722656 39.226562 84.777344 39.761719 84.777344 C 40.410156 84.777344 41 84.722656 41.644531 84.613281 C 41.96875 85.742188 42.34375 86.921875 42.773438 87.996094 L 40.355469 89.65625 C 40.300781 89.710938 38.847656 90.785156 36.699219 90.460938 C 34.707031 90.140625 32.828125 88.746094 30.996094 86.222656 C 30.945312 86.171875 30.945312 86.117188 30.890625 86.117188 C 30.191406 85.257812 28.902344 84.992188 27.179688 85.472656 C 25.675781 85.902344 24.007812 86.761719 22.394531 87.996094 C 20.835938 89.226562 19.488281 90.621094 18.738281 91.964844 C 17.824219 93.519531 17.714844 94.859375 18.414062 95.71875 C 18.738281 96.09375 22.394531 100.601562 28.253906 103.226562 C 29.492188 103.765625 30.675781 103.980469 31.804688 103.980469 C 36.75 103.980469 40.730469 99.796875 40.945312 99.582031 L 46 94.214844 C 50.519531 100.921875 58.101562 105.804688 70.253906 106.820312 C 90.152344 108.484375 100.53125 95.988281 105.90625 81.609375 C 106.285156 83.21875 107.089844 84.5625 108.382812 85.472656 C 112.414062 88.421875 119.511719 85.582031 124.136719 79.144531 C 128.816406 72.921875 129.355469 65.359375 125.265625 62.40625 Z M 125.265625 62.40625 " fill-opacity="1" fill-rule="nonzero"/><g clip-path="url(#344807913f)"><path fill="#ffffff" d="M 73.75 108.859375 C 72.566406 108.859375 71.382812 108.808594 70.148438 108.699219 C 59.445312 107.789062 51.269531 103.871094 45.894531 97.058594 L 42.238281 100.921875 C 41.753906 101.40625 37.503906 105.855469 31.859375 105.855469 C 30.40625 105.855469 28.953125 105.535156 27.609375 104.945312 C 21.371094 102.15625 17.5 97.433594 17.070312 96.898438 C 16.371094 95.988281 15.511719 94.164062 17.230469 91.210938 C 18.089844 89.710938 19.542969 88.101562 21.316406 86.761719 C 23.09375 85.417969 24.976562 84.402344 26.695312 83.917969 C 29.976562 83.003906 31.589844 84.292969 32.234375 85.152344 C 32.289062 85.203125 32.34375 85.257812 32.394531 85.367188 C 33.902344 87.457031 35.40625 88.636719 36.914062 88.851562 C 38.3125 89.066406 39.226562 88.421875 39.28125 88.371094 L 39.332031 88.316406 L 40.675781 87.40625 C 40.570312 87.136719 40.460938 86.8125 40.410156 86.546875 C 39.546875 86.601562 38.742188 86.546875 37.933594 86.4375 C 34.921875 86.0625 32.558594 84.613281 31.429688 82.523438 C 29.976562 79.894531 30.191406 76.300781 31.914062 73.136719 C 33.257812 70.613281 35.460938 68.628906 38.3125 67.34375 C 38.3125 66.804688 38.363281 66.269531 38.417969 65.734375 C 36.375 63.535156 35.191406 60.582031 35.191406 57.582031 C 35.191406 53.824219 37.019531 50.285156 39.976562 48.03125 C 39.601562 47.441406 39.332031 46.796875 39.226562 46.15625 C 39.011719 44.921875 39.332031 43.632812 40.085938 42.613281 C 40.460938 42.078125 40.945312 41.648438 41.484375 41.328125 C 39.011719 39.71875 37.613281 37.304688 37.234375 34.140625 C 36.644531 29.042969 38.3125 24.054688 42.238281 19.28125 C 50.355469 9.355469 65.898438 3.511719 72.296875 3.027344 C 78 2.597656 82.675781 3.9375 86.117188 7.050781 C 89.289062 9.894531 93.484375 11.019531 97.355469 10.054688 C 109.941406 6.941406 117.09375 11.289062 120.210938 14.183594 C 124.136719 17.777344 123.816406 22.390625 122.632812 24.644531 C 120.75 28.238281 122.578125 32.796875 125.375 35.480469 L 125.480469 35.585938 C 125.589844 35.695312 136.613281 48.515625 126.394531 61.175781 C 131.183594 64.769531 130.859375 73.191406 125.589844 80.429688 C 120.265625 87.726562 112.308594 90.675781 107.414062 87.136719 C 106.929688 86.8125 106.554688 86.4375 106.175781 86.007812 C 99.402344 100.976562 88.269531 108.859375 73.75 108.859375 Z M 46.269531 91.640625 L 47.453125 93.410156 C 52.1875 100.386719 59.929688 104.410156 70.414062 105.265625 C 86.386719 106.609375 97.789062 98.507812 104.292969 81.183594 L 106.285156 75.980469 L 107.628906 81.398438 C 107.953125 82.683594 108.542969 83.648438 109.402344 84.238281 C 112.628906 86.546875 118.761719 83.863281 122.738281 78.339844 C 126.773438 72.8125 127.472656 66.164062 124.246094 63.855469 C 123.867188 63.585938 123.492188 63.425781 123.0625 63.265625 L 120.425781 62.40625 L 122.363281 60.421875 C 132.632812 49.855469 123.761719 38.859375 122.902344 37.894531 C 118.492188 33.710938 117.09375 27.59375 119.511719 23.035156 C 119.941406 22.230469 120.589844 19.28125 117.847656 16.757812 C 115.210938 14.347656 109.1875 10.699219 98.164062 13.433594 C 93.214844 14.667969 87.839844 13.273438 83.804688 9.625 C 81.0625 7.15625 77.246094 6.140625 72.566406 6.515625 C 66.867188 6.941406 52.292969 12.523438 44.871094 21.535156 C 41.589844 25.449219 40.140625 29.578125 40.625 33.710938 C 40.945312 36.605469 42.507812 38.429688 45.410156 39.394531 L 47.023438 39.933594 L 46.484375 41.542969 C 46.378906 41.863281 46.269531 42.238281 46.109375 42.773438 L 45.734375 43.902344 L 44.550781 43.957031 C 44.066406 43.957031 43.742188 44.007812 43.742188 44.007812 C 43.367188 44.0625 43.097656 44.222656 42.882812 44.546875 C 42.667969 44.8125 42.558594 45.1875 42.613281 45.566406 C 42.667969 46.046875 42.988281 46.421875 43.472656 46.636719 L 44.871094 47.171875 L 44.335938 49.425781 L 43.582031 49.800781 C 40.570312 51.195312 38.632812 54.253906 38.632812 57.527344 C 38.632812 59.886719 39.601562 62.085938 41.324219 63.75 L 41.914062 64.285156 L 41.859375 65.089844 C 41.808594 66.214844 41.699219 67.34375 41.699219 68.46875 L 41.644531 69.648438 L 40.570312 70.078125 C 37.988281 71.042969 36.054688 72.652344 34.921875 74.746094 C 33.792969 76.835938 33.578125 79.25 34.441406 80.804688 C 35.03125 81.878906 36.484375 82.683594 38.363281 82.953125 C 39.28125 83.058594 40.300781 83.058594 41.429688 82.898438 L 42.9375 82.683594 L 43.3125 84.132812 C 43.636719 85.257812 43.957031 86.332031 44.386719 87.351562 L 44.871094 88.636719 L 41.324219 91.105469 C 40.945312 91.375 39.0625 92.609375 36.375 92.230469 C 33.902344 91.855469 31.644531 90.195312 29.546875 87.296875 L 29.492188 87.242188 C 29.332031 87.027344 28.738281 86.867188 27.609375 87.191406 C 26.320312 87.566406 24.867188 88.316406 23.414062 89.390625 C 21.964844 90.460938 20.886719 91.695312 20.1875 92.820312 C 19.597656 93.839844 19.597656 94.484375 19.703125 94.644531 C 19.867188 94.808594 23.308594 99.207031 28.902344 101.671875 C 29.816406 102.101562 30.78125 102.261719 31.75 102.261719 C 36 102.261719 39.546875 98.453125 39.601562 98.453125 Z M 46.269531 91.640625 " fill-opacity="1" fill-rule="nonzero"/></g><path fill="#ffffff" d="M 45.035156 40.523438 C 45.035156 40.523438 23.039062 103.015625 70.253906 106.984375 C 114.941406 110.738281 111.660156 42.828125 111.660156 42.828125 C 111.660156 42.828125 110.695312 19.386719 83.320312 17.777344 C 52.882812 16.0625 45.035156 40.523438 45.035156 40.523438 Z M 45.035156 40.523438 " fill-opacity="1" fill-rule="nonzero"/><path fill="#ff5525" d="M 63.046875 60.046875 C 62.832031 60.046875 62.617188 59.941406 62.457031 59.78125 C 60.144531 57.203125 55.519531 57.902344 55.464844 57.902344 C 55.035156 57.957031 54.660156 57.6875 54.605469 57.257812 C 54.550781 56.828125 54.820312 56.453125 55.25 56.398438 C 55.464844 56.347656 60.734375 55.542969 63.640625 58.761719 C 63.910156 59.082031 63.910156 59.566406 63.585938 59.832031 C 63.425781 59.992188 63.210938 60.046875 63.046875 60.046875 Z M 63.046875 60.046875 " fill-opacity="1" fill-rule="nonzero"/><path fill="#ff5525" d="M 80.148438 66.429688 C 79.773438 66.429688 79.394531 66.109375 79.394531 65.734375 C 79.34375 65.304688 79.664062 64.929688 80.09375 64.929688 L 116.394531 61.871094 C 116.824219 61.816406 117.199219 62.140625 117.199219 62.570312 C 117.253906 62.996094 116.933594 63.375 116.5 63.375 L 80.203125 66.429688 C 80.148438 66.429688 80.148438 66.429688 80.148438 66.429688 Z M 80.148438 66.429688 " fill-opacity="1" fill-rule="nonzero"/><path fill="#ff5525" d="M 54.820312 53.019531 C 53.851562 53.019531 52.882812 52.539062 52.292969 51.679688 C 49.65625 47.765625 44.496094 48.460938 44.441406 48.515625 C 42.773438 48.78125 41.214844 47.601562 40.945312 45.941406 C 40.675781 44.277344 41.859375 42.722656 43.527344 42.453125 C 43.902344 42.398438 52.617188 41.167969 57.402344 48.246094 C 58.371094 49.640625 57.992188 51.574219 56.59375 52.484375 C 56.003906 52.859375 55.414062 53.019531 54.820312 53.019531 Z M 54.820312 53.019531 " fill-opacity="1" fill-rule="nonzero"/><path fill="#ff5525" d="M 78.859375 56.722656 C 77.890625 56.988281 76.867188 56.777344 76.0625 56.078125 C 72.460938 53.019531 67.671875 55.058594 67.621094 55.113281 C 66.058594 55.808594 64.230469 55.113281 63.585938 53.558594 C 62.886719 52 63.585938 50.175781 65.144531 49.535156 C 65.46875 49.375 73.535156 45.886719 80.042969 51.464844 C 81.332031 52.539062 81.492188 54.523438 80.363281 55.808594 C 79.988281 56.238281 79.449219 56.5625 78.859375 56.722656 Z M 78.859375 56.722656 " fill-opacity="1" fill-rule="nonzero"/><path fill="#ff5525" d="M 55.734375 86.222656 C 55.304688 86.222656 54.820312 86.171875 54.335938 86.117188 C 49.441406 85.367188 48.421875 81.558594 48.421875 81.398438 C 48.367188 81.074219 48.476562 80.753906 48.742188 80.59375 C 49.820312 79.894531 51.59375 78.714844 51.917969 78.445312 C 52.078125 78.285156 52.347656 78.230469 52.5625 78.285156 C 52.617188 78.285156 56.757812 79.25 59.285156 78.015625 C 59.660156 77.855469 60.035156 77.964844 60.253906 78.285156 C 60.253906 78.285156 61.703125 80.539062 62.941406 81.988281 C 63.15625 82.253906 63.15625 82.683594 62.941406 83.003906 C 62.78125 83.167969 60.035156 86.222656 55.734375 86.222656 Z M 50.035156 81.503906 C 50.410156 82.363281 51.59375 84.132812 54.550781 84.5625 C 57.832031 85.097656 60.359375 83.273438 61.328125 82.414062 C 60.574219 81.398438 59.769531 80.269531 59.335938 79.625 C 56.808594 80.539062 53.582031 80.054688 52.507812 79.839844 C 51.917969 80.269531 50.734375 81.074219 50.035156 81.503906 Z M 50.035156 81.503906 " fill-opacity="1" fill-rule="nonzero"/><path fill="#ff5525" d="M 55.628906 82.953125 C 54.550781 82.953125 53.636719 82.792969 52.9375 82.523438 C 51.003906 81.878906 49.980469 80.699219 49.980469 80.699219 C 49.710938 80.378906 49.710938 79.894531 50.035156 79.625 C 50.355469 79.359375 50.839844 79.359375 51.109375 79.679688 C 51.269531 79.839844 54.445312 83.328125 60.519531 80.054688 C 60.898438 79.839844 61.382812 80 61.542969 80.378906 C 61.757812 80.753906 61.597656 81.234375 61.21875 81.398438 C 59.070312 82.578125 57.1875 82.953125 55.628906 82.953125 Z M 55.628906 82.953125 " fill-opacity="1" fill-rule="nonzero"/><path fill="#ff5525" d="M 56.703125 74.960938 C 56.703125 74.960938 54.875 67.394531 44.65625 68.253906 C 34.441406 69.058594 31.480469 77.375 33.632812 81.289062 C 35.785156 85.203125 45.949219 86.277344 56.703125 74.960938 Z M 56.703125 74.960938 " fill-opacity="1" fill-rule="nonzero"/><path fill="#ff5525" d="M 39.761719 84.828125 C 39.226562 84.828125 38.6875 84.777344 38.148438 84.722656 C 35.730469 84.402344 33.792969 83.273438 32.933594 81.71875 C 31.804688 79.574219 31.964844 76.621094 33.417969 73.996094 C 35.40625 70.292969 39.496094 67.988281 44.601562 67.558594 C 55.359375 66.699219 57.457031 74.796875 57.457031 74.851562 L 57.5625 75.28125 L 57.292969 75.601562 C 51.648438 81.449219 45.195312 84.828125 39.761719 84.828125 Z M 46.164062 68.953125 C 45.679688 68.953125 45.195312 68.953125 44.710938 69.003906 C 38.472656 69.488281 35.785156 72.761719 34.761719 74.636719 C 33.578125 76.785156 33.417969 79.25 34.277344 80.914062 C 34.921875 82.09375 36.375 82.898438 38.3125 83.167969 C 40.246094 83.433594 47.238281 83.597656 55.789062 74.746094 C 55.359375 73.402344 53.207031 68.953125 46.164062 68.953125 Z M 46.164062 68.953125 " fill-opacity="1" fill-rule="nonzero"/><path fill="#ffffff" d="M 30.300781 86.652344 C 31.265625 87.941406 29.546875 90.890625 26.480469 93.304688 C 23.414062 95.71875 20.027344 96.578125 19.058594 95.34375 C 19.058594 95.34375 22.714844 100.011719 28.632812 102.636719 C 34.707031 105.320312 40.410156 99.207031 40.410156 99.207031 L 54.28125 84.5625 C 54.875 83.917969 54.820312 82.953125 54.121094 82.414062 C 53.636719 82.039062 52.9375 82.039062 52.402344 82.363281 L 40.785156 90.410156 C 40.839844 90.355469 35.730469 94.324219 30.300781 86.652344 Z M 30.300781 86.652344 " fill-opacity="1" fill-rule="nonzero"/><path fill="#ff5525" d="M 31.859375 104.085938 C 30.621094 104.085938 29.4375 103.820312 28.363281 103.335938 C 22.449219 100.707031 18.789062 96.203125 18.523438 95.824219 L 19.757812 94.859375 C 20.027344 95.183594 20.835938 95.234375 21.855469 94.96875 C 23.148438 94.59375 24.652344 93.789062 26.105469 92.714844 C 27.554688 91.640625 28.6875 90.355469 29.382812 89.175781 C 29.867188 88.316406 30.082031 87.511719 29.867188 87.191406 C 29.867188 87.191406 29.816406 87.136719 29.816406 87.136719 L 31.050781 86.222656 C 31.105469 86.277344 31.105469 86.277344 31.160156 86.332031 C 32.933594 88.851562 34.871094 90.246094 36.859375 90.570312 C 39.011719 90.890625 40.460938 89.765625 40.515625 89.765625 L 52.132812 81.71875 C 52.9375 81.183594 53.960938 81.183594 54.765625 81.773438 C 55.25 82.148438 55.574219 82.738281 55.628906 83.382812 C 55.679688 84.023438 55.464844 84.613281 55.035156 85.097656 L 41.160156 99.742188 C 41.109375 99.796875 39.601562 101.351562 37.34375 102.636719 C 35.355469 103.605469 33.578125 104.085938 31.859375 104.085938 Z M 21.265625 96.628906 C 22.824219 98.1875 25.511719 100.4375 28.953125 101.941406 C 34.441406 104.355469 39.816406 98.722656 39.871094 98.667969 L 53.746094 83.972656 C 53.90625 83.808594 53.960938 83.648438 53.90625 83.433594 C 53.90625 83.21875 53.800781 83.058594 53.636719 82.953125 C 53.421875 82.792969 53.101562 82.738281 52.832031 82.953125 L 41.214844 91 C 41.160156 91.050781 39.226562 92.5 36.429688 92.070312 C 34.546875 91.804688 32.71875 90.730469 31.050781 88.90625 C 30.945312 89.226562 30.78125 89.605469 30.566406 89.980469 C 29.816406 91.320312 28.46875 92.714844 26.910156 93.949219 C 25.351562 95.183594 23.628906 96.039062 22.125 96.46875 C 21.855469 96.523438 21.535156 96.578125 21.265625 96.628906 Z M 21.265625 96.628906 " fill-opacity="1" fill-rule="nonzero"/><path fill="#ff5525" d="M 30.273438 86.691406 C 30.390625 86.839844 30.46875 87.019531 30.511719 87.222656 C 30.554688 87.425781 30.558594 87.648438 30.523438 87.898438 C 30.492188 88.144531 30.421875 88.410156 30.3125 88.695312 C 30.203125 88.976562 30.0625 89.273438 29.882812 89.578125 C 29.703125 89.886719 29.492188 90.199219 29.25 90.519531 C 29.007812 90.839844 28.738281 91.160156 28.445312 91.480469 C 28.148438 91.800781 27.828125 92.113281 27.488281 92.421875 C 27.152344 92.730469 26.796875 93.023438 26.425781 93.308594 C 26.058594 93.59375 25.683594 93.859375 25.296875 94.109375 C 24.914062 94.359375 24.527344 94.585938 24.140625 94.789062 C 23.757812 94.996094 23.378906 95.171875 23.007812 95.324219 C 22.632812 95.476562 22.277344 95.601562 21.933594 95.695312 C 21.589844 95.789062 21.269531 95.851562 20.964844 95.886719 C 20.664062 95.917969 20.390625 95.917969 20.140625 95.890625 C 19.890625 95.859375 19.671875 95.796875 19.488281 95.703125 C 19.300781 95.613281 19.148438 95.492188 19.035156 95.339844 C 18.917969 95.191406 18.835938 95.011719 18.796875 94.808594 C 18.753906 94.605469 18.75 94.382812 18.78125 94.132812 C 18.816406 93.886719 18.886719 93.621094 18.996094 93.335938 C 19.101562 93.054688 19.246094 92.757812 19.425781 92.453125 C 19.605469 92.144531 19.8125 91.832031 20.054688 91.511719 C 20.296875 91.191406 20.566406 90.871094 20.863281 90.550781 C 21.160156 90.230469 21.480469 89.917969 21.816406 89.609375 C 22.15625 89.300781 22.511719 89.007812 22.878906 88.722656 C 23.25 88.4375 23.625 88.171875 24.011719 87.921875 C 24.394531 87.671875 24.78125 87.445312 25.167969 87.242188 C 25.550781 87.035156 25.929688 86.859375 26.300781 86.707031 C 26.671875 86.554688 27.03125 86.429688 27.375 86.335938 C 27.71875 86.242188 28.039062 86.179688 28.34375 86.144531 C 28.644531 86.113281 28.917969 86.113281 29.167969 86.140625 C 29.417969 86.171875 29.632812 86.234375 29.820312 86.328125 C 30.007812 86.417969 30.15625 86.539062 30.273438 86.691406 Z M 30.273438 86.691406 " fill-opacity="1" fill-rule="nonzero"/><path fill="#ff5525" d="M 20.566406 96.683594 C 19.652344 96.683594 18.898438 96.363281 18.46875 95.824219 C 17.769531 94.96875 17.929688 93.625 18.789062 92.070312 C 19.542969 90.730469 20.886719 89.335938 22.449219 88.101562 C 25.460938 85.796875 29.492188 84.347656 30.945312 86.222656 C 31.644531 87.082031 31.480469 88.421875 30.621094 89.980469 C 29.867188 91.320312 28.523438 92.714844 26.964844 93.949219 C 25.40625 95.183594 23.683594 96.039062 22.179688 96.46875 C 21.585938 96.578125 21.050781 96.683594 20.566406 96.683594 Z M 28.792969 86.867188 C 27.609375 86.867188 25.566406 87.617188 23.363281 89.335938 C 21.910156 90.410156 20.78125 91.695312 20.082031 92.875 C 19.542969 93.789062 19.382812 94.59375 19.652344 94.914062 C 19.921875 95.234375 20.726562 95.289062 21.75 95.019531 C 23.039062 94.644531 24.542969 93.839844 25.996094 92.769531 C 27.449219 91.695312 28.578125 90.410156 29.277344 89.226562 C 29.816406 88.316406 29.976562 87.511719 29.707031 87.191406 C 29.546875 86.976562 29.222656 86.867188 28.792969 86.867188 Z M 28.792969 86.867188 " fill-opacity="1" fill-rule="nonzero"/><path fill="#ffffff" d="M 24.652344 100.4375 C 24.652344 100.4375 34.222656 98.5625 34.65625 90.730469 " fill-opacity="1" fill-rule="nonzero"/><path fill="#ff5525" d="M 24.8125 101.191406 L 24.492188 99.6875 C 24.597656 99.6875 33.472656 97.8125 33.902344 90.675781 L 35.460938 90.785156 C 34.976562 99.097656 24.921875 101.136719 24.8125 101.191406 Z M 24.8125 101.191406 " fill-opacity="1" fill-rule="nonzero"/><path fill="#ffffff" d="M 29.707031 103.015625 C 29.707031 103.015625 37.398438 100.0625 38.042969 91.320312 " fill-opacity="1" fill-rule="nonzero"/><path fill="#ff5525" d="M 29.976562 103.765625 L 29.4375 102.316406 C 29.761719 102.210938 36.699219 99.417969 37.289062 91.320312 L 38.796875 91.425781 C 38.148438 100.492188 30.300781 103.605469 29.976562 103.765625 Z M 29.976562 103.765625 " fill-opacity="1" fill-rule="nonzero"/><path fill="#ff5525" d="M 57.078125 89.925781 C 54.445312 89.925781 52.9375 88.316406 52.882812 88.207031 C 52.617188 87.886719 52.617188 87.40625 52.9375 87.136719 C 53.261719 86.867188 53.746094 86.867188 54.015625 87.191406 C 54.066406 87.296875 55.789062 89.011719 58.691406 88.15625 C 59.121094 88.046875 59.554688 88.261719 59.660156 88.691406 C 59.769531 89.121094 59.554688 89.550781 59.121094 89.65625 C 58.371094 89.871094 57.671875 89.925781 57.078125 89.925781 Z M 57.078125 89.925781 " fill-opacity="1" fill-rule="nonzero"/><path fill="#ff5525" d="M 3.949219 74.90625 C 3.949219 74.90625 1.527344 79.035156 5.078125 82.039062 C 9.328125 85.632812 12.714844 82.46875 12.714844 82.46875 C 12.714844 82.46875 17.769531 83.757812 19.867188 80.164062 C 22.609375 75.550781 18.683594 73.617188 18.683594 73.617188 C 18.683594 73.617188 21.15625 68.898438 16.800781 66.914062 C 13.304688 65.359375 10.886719 68.523438 10.886719 68.523438 C 10.886719 68.523438 7.875 64.125 3.519531 67.503906 C 0.128906 70.132812 1.796875 75.28125 3.949219 74.90625 Z M 3.949219 74.90625 " fill-opacity="1" fill-rule="nonzero"/><g clip-path="url(#fcb221af37)"><path fill="#ffffff" d="M 9.21875 84.507812 C 7.875 84.507812 6.261719 84.023438 4.59375 82.628906 C 1.90625 80.378906 2.175781 77.375 2.875 75.496094 C 2.226562 75.175781 1.691406 74.585938 1.3125 73.726562 C 0.453125 71.6875 0.777344 68.738281 3.089844 66.914062 C 4.59375 65.789062 6.101562 65.304688 7.605469 65.519531 C 9.164062 65.789062 10.292969 66.699219 10.992188 67.394531 C 12.230469 66.214844 14.542969 65.035156 17.230469 66.214844 C 18.628906 66.859375 19.542969 67.824219 19.972656 69.058594 C 20.566406 70.722656 20.082031 72.4375 19.703125 73.351562 C 20.296875 73.78125 21.101562 74.585938 21.480469 75.816406 C 21.910156 77.265625 21.585938 78.875 20.621094 80.539062 C 18.574219 84.023438 14.273438 83.488281 12.984375 83.273438 C 12.285156 83.757812 10.941406 84.507812 9.21875 84.507812 Z M 4.59375 75.28125 C 4.488281 75.441406 2.550781 78.929688 5.5625 81.449219 C 9.21875 84.5625 12.070312 82.039062 12.175781 81.933594 L 12.5 81.664062 L 12.929688 81.773438 C 12.984375 81.773438 17.445312 82.898438 19.222656 79.839844 C 20.027344 78.5 20.242188 77.320312 19.972656 76.300781 C 19.597656 74.960938 18.359375 74.316406 18.359375 74.316406 L 17.660156 73.941406 L 18.039062 73.242188 C 18.039062 73.242188 19.058594 71.203125 18.46875 69.542969 C 18.199219 68.683594 17.554688 68.039062 16.53125 67.609375 C 13.683594 66.324219 11.636719 68.898438 11.53125 69.003906 L 10.886719 69.863281 L 10.292969 69.003906 C 10.292969 69.003906 9.109375 67.34375 7.335938 67.074219 C 6.261719 66.914062 5.132812 67.289062 4.003906 68.148438 C 2.066406 69.648438 2.175781 71.957031 2.710938 73.136719 C 3.035156 73.832031 3.464844 74.207031 3.839844 74.15625 L 5.453125 73.886719 Z M 4.59375 75.28125 " fill-opacity="1" fill-rule="nonzero"/></g><path fill="#ffffff" d="M 3.949219 74.90625 C 3.949219 74.90625 4.917969 73.136719 7.390625 73.941406 " fill-opacity="1" fill-rule="nonzero"/><path fill="#ffffff" d="M 3.949219 75.65625 C 3.839844 75.65625 3.679688 75.601562 3.570312 75.550781 C 3.195312 75.335938 3.089844 74.90625 3.304688 74.53125 C 3.734375 73.726562 5.238281 72.4375 7.660156 73.191406 C 8.089844 73.296875 8.304688 73.726562 8.144531 74.15625 C 8.035156 74.585938 7.605469 74.796875 7.175781 74.636719 C 5.402344 74.101562 4.703125 75.121094 4.648438 75.28125 C 4.488281 75.550781 4.21875 75.65625 3.949219 75.65625 Z M 3.949219 75.65625 " fill-opacity="1" fill-rule="nonzero"/><path fill="#ffffff" d="M 10.886719 68.578125 C 10.886719 68.578125 11.53125 69.703125 10.992188 70.667969 " fill-opacity="1" fill-rule="nonzero"/><path fill="#ffffff" d="M 10.992188 71.417969 C 10.886719 71.417969 10.722656 71.367188 10.617188 71.3125 C 10.242188 71.097656 10.132812 70.613281 10.347656 70.238281 C 10.671875 69.703125 10.292969 68.953125 10.242188 68.953125 C 10.023438 68.578125 10.132812 68.09375 10.507812 67.878906 C 10.886719 67.664062 11.316406 67.773438 11.53125 68.148438 C 11.855469 68.683594 12.285156 69.917969 11.636719 71.042969 C 11.476562 71.257812 11.261719 71.417969 10.992188 71.417969 Z M 10.992188 71.417969 " fill-opacity="1" fill-rule="nonzero"/><path fill="#ff5525" d="M 18.683594 73.671875 C 18.683594 73.671875 17.070312 72.8125 15.457031 74.046875 " fill-opacity="1" fill-rule="nonzero"/><path fill="#ffffff" d="M 15.457031 74.796875 C 15.242188 74.796875 14.972656 74.691406 14.863281 74.476562 C 14.597656 74.15625 14.703125 73.671875 15.027344 73.402344 C 17.015625 71.902344 19.007812 72.921875 19.058594 72.976562 C 19.4375 73.191406 19.597656 73.617188 19.382812 73.996094 C 19.167969 74.371094 18.738281 74.53125 18.359375 74.316406 C 18.308594 74.261719 17.125 73.726562 15.941406 74.585938 C 15.78125 74.746094 15.617188 74.796875 15.457031 74.796875 Z M 15.457031 74.796875 " fill-opacity="1" fill-rule="nonzero"/><path fill="#ff5525" d="M 4.269531 51.785156 C 4.269531 51.785156 2.710938 46.851562 7.875 46.207031 C 12.929688 45.566406 12.820312 50.175781 12.820312 50.175781 C 12.820312 50.175781 14.863281 49.800781 15.511719 53.503906 C 15.996094 56.5625 14.273438 59.886719 9.59375 60.371094 C 4.917969 60.851562 3.195312 57.527344 2.875 55.972656 C 2.550781 54.414062 2.710938 51.894531 4.269531 51.785156 Z M 4.269531 51.785156 " fill-opacity="1" fill-rule="nonzero"/><path fill="#ffffff" d="M 8.679688 61.175781 C 3.464844 61.175781 2.226562 56.667969 2.121094 56.132812 C 1.796875 54.898438 1.851562 53.019531 2.65625 51.949219 C 2.875 51.679688 3.140625 51.410156 3.410156 51.25 C 3.25 50.339844 3.195312 48.835938 4.003906 47.496094 C 4.753906 46.316406 5.992188 45.617188 7.765625 45.402344 C 9.59375 45.1875 10.992188 45.511719 12.070312 46.421875 C 13.089844 47.335938 13.46875 48.621094 13.574219 49.375 C 13.84375 49.425781 14.167969 49.535156 14.488281 49.800781 C 15.402344 50.445312 15.996094 51.625 16.261719 53.34375 C 16.585938 55.167969 16.15625 56.988281 15.082031 58.382812 C 13.898438 59.941406 12.015625 60.851562 9.648438 61.121094 C 9.328125 61.121094 8.949219 61.175781 8.679688 61.175781 Z M 8.789062 46.90625 C 8.519531 46.90625 8.25 46.90625 7.929688 46.960938 C 6.636719 47.121094 5.722656 47.601562 5.238281 48.355469 C 4.378906 49.695312 4.96875 51.574219 4.96875 51.574219 L 5.238281 52.484375 L 4.269531 52.589844 C 4.164062 52.589844 3.949219 52.644531 3.789062 52.914062 C 3.304688 53.558594 3.304688 54.898438 3.519531 55.863281 C 3.625 56.292969 4.703125 60.15625 9.433594 59.671875 C 11.371094 59.457031 12.875 58.761719 13.789062 57.527344 C 14.597656 56.453125 14.917969 55.113281 14.703125 53.664062 C 14.328125 51.410156 13.414062 50.875 12.875 50.929688 L 12.015625 51.035156 L 12.015625 50.175781 C 12.015625 50.175781 12.015625 48.570312 10.941406 47.65625 C 10.457031 47.121094 9.703125 46.90625 8.789062 46.90625 Z M 8.789062 46.90625 " fill-opacity="1" fill-rule="nonzero"/><path fill="#ffffff" d="M 6.476562 54.953125 C 6.476562 54.953125 6.421875 54.953125 6.421875 54.953125 C 4.433594 54.789062 3.679688 52.859375 3.519531 51.839844 C 3.464844 51.410156 3.734375 51.035156 4.164062 50.980469 C 4.59375 50.929688 4.96875 51.195312 5.023438 51.625 C 5.023438 51.679688 5.292969 53.289062 6.53125 53.394531 C 6.960938 53.449219 7.28125 53.773438 7.230469 54.199219 C 7.175781 54.683594 6.851562 54.953125 6.476562 54.953125 Z M 6.476562 54.953125 " fill-opacity="1" fill-rule="nonzero"/><path fill="#ffffff" d="M 11.855469 53.71875 C 11.636719 53.71875 11.371094 53.609375 11.261719 53.394531 C 10.992188 53.074219 11.101562 52.589844 11.421875 52.324219 C 12.335938 51.679688 12.070312 50.285156 12.070312 50.285156 C 12.015625 49.855469 12.285156 49.480469 12.660156 49.375 C 13.089844 49.265625 13.46875 49.535156 13.574219 49.964844 C 13.574219 50.070312 14.003906 52.269531 12.335938 53.503906 C 12.175781 53.664062 12.015625 53.71875 11.855469 53.71875 Z M 11.855469 53.71875 " fill-opacity="1" fill-rule="nonzero"/><path fill="#ffffff" d="M 56.703125 57.582031 C 56.703125 58.203125 56.640625 58.820312 56.519531 59.433594 C 56.398438 60.042969 56.21875 60.636719 55.976562 61.214844 C 55.738281 61.789062 55.445312 62.335938 55.097656 62.855469 C 54.75 63.375 54.355469 63.851562 53.914062 64.292969 C 53.472656 64.734375 52.992188 65.128906 52.472656 65.472656 C 51.953125 65.820312 51.40625 66.113281 50.828125 66.351562 C 50.25 66.589844 49.65625 66.769531 49.042969 66.890625 C 48.429688 67.015625 47.808594 67.074219 47.183594 67.074219 C 46.558594 67.074219 45.941406 67.015625 45.328125 66.890625 C 44.714844 66.769531 44.121094 66.589844 43.542969 66.351562 C 42.964844 66.113281 42.417969 65.820312 41.894531 65.472656 C 41.375 65.128906 40.894531 64.734375 40.453125 64.292969 C 40.011719 63.851562 39.617188 63.375 39.269531 62.855469 C 38.921875 62.335938 38.628906 61.789062 38.390625 61.214844 C 38.152344 60.636719 37.972656 60.042969 37.847656 59.433594 C 37.726562 58.820312 37.667969 58.203125 37.667969 57.582031 C 37.667969 56.957031 37.726562 56.339844 37.847656 55.726562 C 37.972656 55.117188 38.152344 54.523438 38.390625 53.945312 C 38.628906 53.371094 38.921875 52.824219 39.269531 52.304688 C 39.617188 51.785156 40.011719 51.308594 40.453125 50.867188 C 40.894531 50.425781 41.375 50.03125 41.894531 49.6875 C 42.417969 49.339844 42.964844 49.046875 43.542969 48.808594 C 44.121094 48.570312 44.714844 48.390625 45.328125 48.269531 C 45.941406 48.148438 46.558594 48.085938 47.183594 48.085938 C 47.808594 48.085938 48.429688 48.148438 49.042969 48.269531 C 49.65625 48.390625 50.25 48.570312 50.828125 48.808594 C 51.40625 49.046875 51.953125 49.339844 52.472656 49.6875 C 52.992188 50.03125 53.472656 50.425781 53.914062 50.867188 C 54.355469 51.308594 54.75 51.785156 55.097656 52.304688 C 55.445312 52.824219 55.738281 53.371094 55.976562 53.945312 C 56.21875 54.523438 56.398438 55.117188 56.519531 55.726562 C 56.640625 56.339844 56.703125 56.957031 56.703125 57.582031 Z M 56.703125 57.582031 " fill-opacity="1" fill-rule="nonzero"/><path fill="#ff5525" d="M 47.183594 67.878906 C 41.539062 67.878906 36.914062 63.265625 36.914062 57.632812 C 36.914062 52 41.539062 47.386719 47.183594 47.386719 C 52.832031 47.386719 57.457031 52 57.457031 57.632812 C 57.457031 63.265625 52.832031 67.878906 47.183594 67.878906 Z M 47.183594 48.890625 C 42.34375 48.890625 38.417969 52.804688 38.417969 57.632812 C 38.417969 62.460938 42.34375 66.378906 47.183594 66.378906 C 52.023438 66.378906 55.949219 62.460938 55.949219 57.632812 C 55.894531 52.804688 51.96875 48.890625 47.183594 48.890625 Z M 47.183594 48.890625 " fill-opacity="1" fill-rule="nonzero"/><path fill="#ff5525" d="M 49.011719 57.742188 C 49.011719 58.066406 48.949219 58.382812 48.824219 58.683594 C 48.699219 58.988281 48.519531 59.253906 48.289062 59.484375 C 48.054688 59.71875 47.789062 59.894531 47.484375 60.019531 C 47.183594 60.144531 46.867188 60.207031 46.539062 60.207031 C 46.210938 60.207031 45.894531 60.144531 45.59375 60.019531 C 45.289062 59.894531 45.023438 59.71875 44.789062 59.484375 C 44.558594 59.253906 44.378906 58.988281 44.253906 58.683594 C 44.128906 58.382812 44.066406 58.066406 44.066406 57.742188 C 44.066406 57.414062 44.128906 57.097656 44.253906 56.796875 C 44.378906 56.496094 44.558594 56.226562 44.789062 55.996094 C 45.023438 55.765625 45.289062 55.585938 45.59375 55.460938 C 45.894531 55.335938 46.210938 55.273438 46.539062 55.273438 C 46.867188 55.273438 47.183594 55.335938 47.484375 55.460938 C 47.789062 55.585938 48.054688 55.765625 48.289062 55.996094 C 48.519531 56.226562 48.699219 56.496094 48.824219 56.796875 C 48.949219 57.097656 49.011719 57.414062 49.011719 57.742188 Z M 49.011719 57.742188 " fill-opacity="1" fill-rule="nonzero"/><path fill="#ff5525" d="M 46.539062 60.636719 C 46.164062 60.636719 45.839844 60.585938 45.464844 60.421875 C 44.765625 60.15625 44.171875 59.617188 43.851562 58.921875 C 43.527344 58.222656 43.527344 57.417969 43.796875 56.722656 C 44.386719 55.21875 46.054688 54.523438 47.507812 55.113281 C 49.011719 55.703125 49.710938 57.367188 49.121094 58.8125 C 48.851562 59.511719 48.3125 60.101562 47.613281 60.421875 C 47.347656 60.53125 46.914062 60.636719 46.539062 60.636719 Z M 46.539062 55.648438 C 45.679688 55.648438 44.871094 56.183594 44.550781 56.988281 C 44.335938 57.527344 44.335938 58.0625 44.601562 58.597656 C 44.871094 59.136719 45.25 59.511719 45.785156 59.726562 C 46.324219 59.941406 46.863281 59.941406 47.398438 59.671875 C 47.9375 59.457031 48.3125 59.027344 48.527344 58.492188 C 48.960938 57.417969 48.421875 56.183594 47.347656 55.757812 C 47.078125 55.703125 46.808594 55.648438 46.539062 55.648438 Z M 46.539062 55.648438 " fill-opacity="1" fill-rule="nonzero"/><path fill="#ff5525" d="M 47.292969 55.757812 C 47.292969 55.757812 45.839844 55.058594 43.902344 55.488281 L 43.742188 54.738281 C 45.949219 54.253906 47.5625 55.058594 47.613281 55.113281 Z M 47.292969 55.757812 " fill-opacity="1" fill-rule="nonzero"/><path fill="#ffffff" d="M 125.242188 62.429688 C 125.722656 62.777344 126.144531 63.195312 126.507812 63.683594 C 126.871094 64.171875 127.167969 64.722656 127.402344 65.335938 C 127.632812 65.949219 127.792969 66.609375 127.886719 67.324219 C 127.976562 68.035156 127.996094 68.78125 127.945312 69.566406 C 127.894531 70.351562 127.769531 71.15625 127.578125 71.980469 C 127.382812 72.808594 127.121094 73.636719 126.796875 74.472656 C 126.46875 75.308594 126.078125 76.136719 125.628906 76.949219 C 125.179688 77.765625 124.679688 78.550781 124.125 79.3125 C 123.570312 80.074219 122.976562 80.792969 122.339844 81.472656 C 121.703125 82.152344 121.035156 82.777344 120.34375 83.347656 C 119.648438 83.917969 118.933594 84.421875 118.207031 84.863281 C 117.480469 85.300781 116.753906 85.667969 116.019531 85.960938 C 115.289062 86.253906 114.570312 86.464844 113.863281 86.601562 C 113.15625 86.734375 112.476562 86.785156 111.820312 86.757812 C 111.164062 86.726562 110.546875 86.617188 109.96875 86.421875 C 109.390625 86.230469 108.859375 85.960938 108.382812 85.613281 C 107.902344 85.265625 107.480469 84.847656 107.117188 84.359375 C 106.753906 83.871094 106.457031 83.320312 106.222656 82.707031 C 105.992188 82.09375 105.832031 81.433594 105.738281 80.71875 C 105.648438 80.007812 105.628906 79.261719 105.679688 78.476562 C 105.730469 77.691406 105.855469 76.886719 106.046875 76.0625 C 106.242188 75.234375 106.503906 74.40625 106.828125 73.570312 C 107.15625 72.734375 107.546875 71.90625 107.996094 71.09375 C 108.445312 70.277344 108.945312 69.492188 109.5 68.730469 C 110.054688 67.96875 110.648438 67.25 111.285156 66.570312 C 111.921875 65.890625 112.585938 65.265625 113.28125 64.695312 C 113.976562 64.125 114.6875 63.621094 115.417969 63.179688 C 116.144531 62.742188 116.871094 62.375 117.605469 62.082031 C 118.335938 61.789062 119.054688 61.578125 119.761719 61.441406 C 120.46875 61.308594 121.148438 61.257812 121.804688 61.285156 C 122.460938 61.316406 123.078125 61.425781 123.65625 61.621094 C 124.234375 61.8125 124.765625 62.082031 125.242188 62.429688 Z M 125.242188 62.429688 " fill-opacity="1" fill-rule="nonzero"/><path fill="#ff5525" d="M 118.867188 82.09375 C 118.761719 82.09375 118.707031 82.09375 118.597656 82.039062 C 118.222656 81.878906 118.007812 81.449219 118.167969 81.074219 C 118.222656 80.96875 119.082031 78.5 117.363281 77.800781 C 114.941406 76.785156 113.007812 78.070312 112.953125 78.125 C 112.683594 78.285156 112.308594 78.285156 112.039062 78.125 C 111.769531 77.964844 111.660156 77.589844 111.769531 77.265625 C 114.1875 69.808594 122.738281 69.757812 122.847656 69.757812 C 123.277344 69.757812 123.601562 70.078125 123.601562 70.507812 C 123.601562 70.9375 123.277344 71.257812 122.847656 71.257812 C 122.847656 71.257812 120.910156 71.257812 118.761719 72.117188 C 116.609375 72.976562 114.996094 74.261719 113.972656 76.085938 C 114.996094 75.816406 116.449219 75.765625 118.007812 76.40625 C 120.480469 77.425781 120.160156 80.269531 119.621094 81.609375 C 119.460938 81.933594 119.191406 82.09375 118.867188 82.09375 Z M 118.867188 82.09375 " fill-opacity="1" fill-rule="nonzero"/><path fill="#ff5525" d="M 69.609375 72.277344 C 58.960938 67.933594 54.445312 75.390625 54.445312 75.390625 C 62.082031 91.050781 73.375 93.410156 76.976562 89.925781 C 80.578125 86.4375 80.257812 76.621094 69.609375 72.277344 Z M 69.609375 72.277344 " fill-opacity="1" fill-rule="nonzero"/><path fill="#ff5525" d="M 72.890625 92.070312 C 72.296875 92.070312 71.652344 92.015625 71.007812 91.910156 C 64.609375 90.785156 58.15625 84.722656 53.746094 75.710938 L 53.582031 75.335938 L 53.800781 74.960938 C 53.851562 74.90625 58.746094 67.019531 69.933594 71.527344 C 75.203125 73.671875 78.75 77.535156 79.664062 82.09375 C 80.308594 85.367188 79.503906 88.585938 77.566406 90.410156 C 76.386719 91.535156 74.773438 92.070312 72.890625 92.070312 Z M 55.304688 75.441406 C 61.488281 87.832031 69.070312 90.03125 71.222656 90.40625 C 73.425781 90.785156 75.308594 90.40625 76.386719 89.390625 C 77.945312 87.886719 78.589844 85.152344 78.050781 82.46875 C 77.566406 80.054688 75.847656 75.65625 69.285156 73.027344 C 60.683594 69.433594 56.328125 74.101562 55.304688 75.441406 Z M 55.304688 75.441406 " fill-opacity="1" fill-rule="nonzero"/><path fill="#ffffff" d="M 80.308594 63.964844 C 80.308594 64.585938 80.25 65.203125 80.128906 65.816406 C 80.003906 66.425781 79.824219 67.019531 79.585938 67.597656 C 79.347656 68.171875 79.054688 68.71875 78.707031 69.238281 C 78.359375 69.757812 77.964844 70.234375 77.523438 70.675781 C 77.082031 71.117188 76.601562 71.511719 76.082031 71.859375 C 75.558594 72.203125 75.011719 72.496094 74.433594 72.734375 C 73.855469 72.972656 73.261719 73.152344 72.648438 73.273438 C 72.035156 73.398438 71.417969 73.457031 70.792969 73.457031 C 70.167969 73.457031 69.546875 73.398438 68.933594 73.273438 C 68.320312 73.152344 67.726562 72.972656 67.148438 72.734375 C 66.570312 72.496094 66.023438 72.203125 65.503906 71.859375 C 64.984375 71.511719 64.503906 71.117188 64.0625 70.675781 C 63.621094 70.234375 63.226562 69.757812 62.878906 69.238281 C 62.53125 68.71875 62.238281 68.171875 62 67.597656 C 61.757812 67.019531 61.578125 66.425781 61.457031 65.816406 C 61.335938 65.203125 61.273438 64.585938 61.273438 63.964844 C 61.273438 63.339844 61.335938 62.722656 61.457031 62.109375 C 61.578125 61.5 61.757812 60.90625 62 60.328125 C 62.238281 59.753906 62.53125 59.207031 62.878906 58.6875 C 63.226562 58.171875 63.621094 57.691406 64.0625 57.25 C 64.503906 56.808594 64.984375 56.414062 65.503906 56.070312 C 66.023438 55.722656 66.570312 55.429688 67.148438 55.191406 C 67.726562 54.953125 68.320312 54.773438 68.933594 54.652344 C 69.546875 54.53125 70.167969 54.46875 70.792969 54.46875 C 71.417969 54.46875 72.035156 54.53125 72.648438 54.652344 C 73.261719 54.773438 73.855469 54.953125 74.433594 55.191406 C 75.011719 55.429688 75.558594 55.722656 76.082031 56.070312 C 76.601562 56.414062 77.082031 56.808594 77.523438 57.25 C 77.964844 57.691406 78.359375 58.171875 78.707031 58.6875 C 79.054688 59.207031 79.347656 59.753906 79.585938 60.328125 C 79.824219 60.90625 80.003906 61.5 80.128906 62.109375 C 80.25 62.722656 80.308594 63.339844 80.308594 63.964844 Z M 80.308594 63.964844 " fill-opacity="1" fill-rule="nonzero"/><path fill="#ff5525" d="M 70.792969 74.207031 C 65.144531 74.207031 60.519531 69.59375 60.519531 63.964844 C 60.519531 58.332031 65.144531 53.71875 70.792969 53.71875 C 76.4375 53.71875 81.0625 58.332031 81.0625 63.964844 C 81.0625 69.59375 76.4375 74.207031 70.792969 74.207031 Z M 70.792969 55.273438 C 65.953125 55.273438 62.027344 59.1875 62.027344 64.015625 C 62.027344 68.84375 65.953125 72.761719 70.792969 72.761719 C 75.632812 72.761719 79.558594 68.84375 79.558594 64.015625 C 79.503906 59.1875 75.578125 55.273438 70.792969 55.273438 Z M 70.792969 55.273438 " fill-opacity="1" fill-rule="nonzero"/><path fill="#ff5525" d="M 72.996094 64.125 C 72.996094 64.453125 72.933594 64.765625 72.808594 65.070312 C 72.683594 65.371094 72.503906 65.636719 72.273438 65.867188 C 72.039062 66.101562 71.773438 66.277344 71.46875 66.402344 C 71.167969 66.527344 70.851562 66.589844 70.523438 66.589844 C 70.195312 66.589844 69.878906 66.527344 69.578125 66.402344 C 69.273438 66.277344 69.007812 66.101562 68.773438 65.867188 C 68.542969 65.636719 68.363281 65.371094 68.238281 65.070312 C 68.113281 64.765625 68.050781 64.453125 68.050781 64.125 C 68.050781 63.796875 68.113281 63.480469 68.238281 63.179688 C 68.363281 62.878906 68.542969 62.609375 68.773438 62.378906 C 69.007812 62.148438 69.273438 61.96875 69.578125 61.84375 C 69.878906 61.71875 70.195312 61.65625 70.523438 61.65625 C 70.851562 61.65625 71.167969 61.71875 71.46875 61.84375 C 71.773438 61.96875 72.039062 62.148438 72.273438 62.378906 C 72.503906 62.609375 72.683594 62.878906 72.808594 63.179688 C 72.933594 63.480469 72.996094 63.796875 72.996094 64.125 Z M 72.996094 64.125 " fill-opacity="1" fill-rule="nonzero"/><path fill="#ff5525" d="M 70.523438 66.96875 C 70.148438 66.96875 69.824219 66.914062 69.449219 66.753906 C 68.75 66.484375 68.15625 65.949219 67.835938 65.25 C 67.511719 64.554688 67.511719 63.75 67.78125 63.050781 C 68.050781 62.355469 68.585938 61.765625 69.285156 61.441406 C 69.984375 61.121094 70.792969 61.121094 71.492188 61.386719 C 72.191406 61.65625 72.78125 62.191406 73.105469 62.890625 C 73.425781 63.585938 73.425781 64.390625 73.160156 65.089844 C 72.890625 65.789062 72.351562 66.378906 71.652344 66.699219 C 71.328125 66.914062 70.898438 66.96875 70.523438 66.96875 Z M 70.523438 61.980469 C 70.253906 61.980469 69.933594 62.03125 69.664062 62.140625 C 69.125 62.355469 68.75 62.785156 68.535156 63.320312 C 68.320312 63.855469 68.320312 64.390625 68.585938 64.929688 C 68.855469 65.464844 69.234375 65.839844 69.769531 66.054688 C 70.308594 66.269531 70.847656 66.269531 71.382812 66 C 71.921875 65.789062 72.296875 65.359375 72.511719 64.820312 C 72.726562 64.285156 72.726562 63.75 72.460938 63.210938 C 72.242188 62.675781 71.8125 62.300781 71.277344 62.085938 C 71.0625 62.03125 70.792969 61.980469 70.523438 61.980469 Z M 70.523438 61.980469 " fill-opacity="1" fill-rule="nonzero"/><path fill="#ff5525" d="M 71.277344 62.140625 C 71.277344 62.140625 69.824219 61.441406 67.886719 61.871094 L 67.726562 61.121094 C 69.933594 60.636719 71.546875 61.441406 71.597656 61.496094 Z M 71.277344 62.140625 " fill-opacity="1" fill-rule="nonzero"/><path fill="#ff5525" d="M 101.066406 78.769531 C 107.414062 76.140625 116.125 68.789062 122.953125 62.246094 C 135.914062 49.855469 124.191406 36.605469 124.191406 36.605469 C 120.695312 33.335938 118.867188 28.023438 121.074219 23.734375 C 121.933594 22.070312 122.253906 18.367188 119.027344 15.363281 C 115.15625 11.769531 108.167969 9.035156 97.789062 11.609375 C 93.214844 12.738281 88.484375 11.34375 84.988281 8.230469 C 82.355469 5.871094 78.375 4.207031 72.460938 4.691406 C 63.316406 5.386719 36.96875 17.082031 38.957031 33.871094 C 41.324219 54.09375 91.601562 28.183594 98.808594 42.132812 C 103.757812 51.734375 90.957031 51.035156 93.324219 58.117188 C 94.9375 63.050781 100.476562 59.832031 101.121094 65.949219 C 101.390625 68.789062 99.078125 70.613281 97.140625 72.4375 C 95.636719 73.832031 95.527344 76.195312 96.925781 77.75 C 97.894531 78.929688 99.617188 79.359375 101.066406 78.769531 Z M 101.066406 78.769531 " fill-opacity="1" fill-rule="nonzero"/><path fill="#ff5525" d="M 12.714844 78.605469 C 12.714844 78.605469 14.382812 81.074219 11.746094 83.113281 " fill-opacity="1" fill-rule="nonzero"/><path fill="#ffffff" d="M 11.746094 83.917969 C 11.53125 83.917969 11.316406 83.808594 11.15625 83.648438 C 10.886719 83.328125 10.941406 82.84375 11.261719 82.578125 C 13.25 81.019531 12.230469 79.25 12.070312 79.089844 C 11.855469 78.714844 11.90625 78.285156 12.285156 78.015625 C 12.660156 77.800781 13.089844 77.855469 13.359375 78.230469 C 14.058594 79.304688 14.757812 81.773438 12.230469 83.808594 C 12.070312 83.863281 11.90625 83.917969 11.746094 83.917969 Z M 11.746094 83.917969 " fill-opacity="1" fill-rule="nonzero"/><g fill="#ff5525" fill-opacity="1"><g transform="translate(130.690885, 41.923606)"><g><path d="M 2.8125 -0.0351562 L 9.582031 -0.0351562 L 9.582031 -6.730469 L 14.242188 -6.730469 C 20.382812 -6.730469 23.523438 -11.464844 23.523438 -16.203125 C 23.636719 -21.082031 20.453125 -25.929688 14.242188 -25.929688 C 10.394531 -25.964844 6.65625 -25.929688 2.8125 -25.929688 Z M 14.242188 -12.613281 L 9.46875 -12.613281 L 9.46875 -20.046875 L 14.242188 -20.046875 C 16.089844 -20.046875 17.050781 -18.234375 17.050781 -16.386719 C 17.050781 -14.5 16.015625 -12.613281 14.242188 -12.613281 Z M 14.242188 -12.613281 "/></g></g></g><g fill="#ff5525" fill-opacity="1"><g transform="translate(155.029711, 41.923606)"><g><path d="M 8.101562 -3.21875 L 17.792969 -3.21875 L 19.308594 0 L 26.300781 0 L 26.300781 -0.925781 L 14.535156 -26.152344 L 11.429688 -26.152344 L -0.445312 -0.925781 L -0.445312 0 L 6.621094 0 Z M 10.28125 -8.878906 L 12.945312 -15.128906 L 15.644531 -8.878906 Z M 10.28125 -8.878906 "/></g></g></g><g fill="#ff5525" fill-opacity="1"><g transform="translate(180.922069, 41.923606)"><g><path d="M 12.6875 -25.855469 L 2.8125 -25.855469 L 2.8125 0 L 12.6875 0 C 21.269531 0 25.558594 -6.546875 25.449219 -13.058594 C 25.449219 -19.417969 21.121094 -25.855469 12.6875 -25.855469 Z M 12.613281 -6.101562 L 9.582031 -6.101562 L 9.582031 -19.789062 L 12.613281 -19.789062 C 16.609375 -19.789062 18.679688 -16.386719 18.679688 -12.984375 C 18.679688 -9.542969 16.71875 -6.101562 12.613281 -6.101562 Z M 12.613281 -6.101562 "/></g></g></g><g fill="#ff5525" fill-opacity="1"><g transform="translate(207.813145, 41.923606)"><g><path d="M 24.746094 -1 L 19.679688 -9.210938 C 22.230469 -10.949219 23.488281 -13.796875 23.523438 -16.757812 C 23.523438 -21.304688 20.453125 -25.929688 14.203125 -25.929688 C 10.394531 -25.964844 6.65625 -25.929688 2.8125 -25.929688 L 2.8125 -0.0351562 L 9.582031 -0.0351562 L 9.582031 -8.136719 L 13.132812 -8.136719 L 17.570312 -0.0351562 L 24.746094 -0.0351562 Z M 14.167969 -13.648438 L 9.46875 -13.648438 L 9.46875 -20.046875 L 14.167969 -20.046875 C 16.089844 -20.046875 16.976562 -18.53125 16.976562 -16.902344 C 16.976562 -15.277344 16.054688 -13.648438 14.167969 -13.648438 Z M 14.167969 -13.648438 "/></g></g></g><g fill="#ff5525" fill-opacity="1"><g transform="translate(233.557557, 41.923606)"><g><path d="M 18.9375 -20.011719 L 18.9375 -25.890625 L 2.773438 -25.890625 L 2.773438 0 L 19.269531 0 L 19.269531 -6.175781 L 9.542969 -6.175781 L 9.542969 -10.394531 L 18.199219 -10.394531 L 18.199219 -16.3125 L 9.542969 -16.3125 L 9.542969 -20.011719 Z M 18.9375 -20.011719 "/></g></g></g><g fill="#ff5525" fill-opacity="1"><g transform="translate(130.690885, 73.133089)"><g><path d="M 8.101562 -3.21875 L 17.792969 -3.21875 L 19.308594 0 L 26.300781 0 L 26.300781 -0.925781 L 14.535156 -26.152344 L 11.429688 -26.152344 L -0.445312 -0.925781 L -0.445312 0 L 6.621094 0 Z M 10.28125 -8.878906 L 12.945312 -15.128906 L 15.644531 -8.878906 Z M 10.28125 -8.878906 "/></g></g></g><g fill="#ff5525" fill-opacity="1"><g transform="translate(156.583243, 73.133089)"><g><path d="M 0.703125 -19.972656 L 7.066406 -19.972656 L 7.066406 0 L 13.613281 0 L 13.613281 -19.972656 L 19.9375 -19.972656 L 19.9375 -25.890625 L 0.703125 -25.890625 Z M 0.703125 -19.972656 "/></g></g></g><g fill="#ff5525" fill-opacity="1"><g transform="translate(177.223152, 73.133089)"><g><path d="M 0.703125 -19.972656 L 7.066406 -19.972656 L 7.066406 0 L 13.613281 0 L 13.613281 -19.972656 L 19.9375 -19.972656 L 19.9375 -25.890625 L 0.703125 -25.890625 Z M 0.703125 -19.972656 "/></g></g></g><g fill="#ff5525" fill-opacity="1"><g transform="translate(197.863061, 73.133089)"><g><path d="M 15.128906 -5.472656 L 11.835938 -5.472656 L 11.835938 -20.417969 L 14.832031 -20.417969 L 14.832031 -25.890625 L 2.070312 -25.890625 L 2.070312 -20.417969 L 5.066406 -20.417969 L 5.066406 -5.472656 L 1.777344 -5.472656 L 1.777344 0 L 15.128906 0 Z M 15.128906 -5.472656 "/></g></g></g><g fill="#ff5525" fill-opacity="1"><g transform="translate(214.767069, 73.133089)"><g><path d="M 12.648438 -11.429688 L 12.539062 -11.429688 L 10.355469 -18.199219 L 7.101562 -25.890625 L -0.109375 -25.890625 L -0.109375 -24.894531 L 11.171875 0.257812 L 13.980469 0.257812 L 25.152344 -24.894531 L 25.152344 -25.890625 L 17.941406 -25.890625 L 14.757812 -18.199219 Z M 12.648438 -11.429688 "/></g></g></g><g fill="#ff5525" fill-opacity="1"><g transform="translate(239.845674, 73.133089)"><g><path d="M 27.964844 -12.945312 C 27.964844 -21.898438 21.378906 -26.300781 14.757812 -26.300781 C 8.027344 -26.300781 1.40625 -21.898438 1.40625 -12.945312 C 1.40625 -3.957031 7.804688 0.40625 14.648438 0.40625 C 22.488281 0.40625 27.964844 -5.03125 27.964844 -12.945312 Z M 8.175781 -12.945312 C 8.175781 -17.679688 11.394531 -19.863281 14.757812 -19.863281 C 17.976562 -19.863281 21.195312 -17.570312 21.195312 -12.945312 C 21.195312 -8.324219 17.902344 -5.992188 14.683594 -5.992188 C 11.355469 -5.992188 8.175781 -8.324219 8.175781 -12.945312 Z M 8.175781 -12.945312 "/></g></g></g></svg>