<svg xmlns="http://www.w3.org/2000/svg" xmlns:xlink="http://www.w3.org/1999/xlink" width="500" zoomAndPan="magnify" viewBox="0 0 375 112.499997" height="150" preserveAspectRatio="xMidYMid meet" version="1.0"><defs><g/></defs><g fill="#000000" fill-opacity="1"><g transform="translate(3.599016, 96.451777)"><g><path d="M 35.164062 -68.644531 C 35.164062 -68.644531 42.597656 -68.414062 45.429688 -68.414062 C 49.570312 -68.414062 53.78125 -64.203125 53.78125 -54.394531 C 53.78125 -40.453125 48.191406 -39.074219 42.597656 -39.074219 C 40.144531 -39.074219 39.839844 -39.074219 34.246094 -39.074219 L 19.460938 -39.226562 L 19.765625 -65.8125 L 19.765625 -85.421875 C 9.882812 -84.964844 0 -76.535156 0 -66.5 L 0 0 L 0.84375 0 C 1.148438 0 1.457031 0 1.761719 0 C 11.644531 -0.460938 19.460938 -8.582031 19.460938 -18.617188 L 19.460938 -39.226562 C 19.460938 -26.507812 30.03125 -23.828125 38.460938 -23.828125 C 59.375 -23.828125 70.945312 -30.722656 70.945312 -55.007812 C 70.945312 -81.59375 56.769531 -85.195312 44.359375 -85.195312 L 19.765625 -85.421875 C 19.765625 -85.421875 19.765625 -68.644531 35.164062 -68.644531 Z M 35.164062 -68.644531 "/></g></g></g><g fill="#000000" fill-opacity="1"><g transform="translate(78.445284, 96.451777)"><g><path d="M 28.269531 -28.347656 L 31.871094 -37.234375 C 37.539062 -54.625 33.402344 -64.433594 31.949219 -70.023438 L 34.476562 -64.125 C 36.160156 -60.21875 38.996094 -49.03125 45.046875 -28.347656 Z M 17.085938 0 L 24.746094 -19.460938 L 28.117188 -27.886719 C 28.117188 -19.460938 34.9375 -12.640625 43.363281 -12.640625 L 50.566406 -12.640625 C 52.019531 -6.972656 54.777344 0 63.207031 0 L 74.46875 0 L 54.472656 -69.183594 C 51.101562 -80.597656 41.449219 -85.195312 29.648438 -85.195312 L 28.269531 -85.195312 L 3.523438 -19.535156 C 0 -10.113281 6.972656 0 17.085938 0 Z M 17.085938 0 "/></g></g></g><g fill="#000000" fill-opacity="1"><g transform="translate(156.738918, 96.451777)"><g><path d="M 73.625 -57.460938 C 73.625 -78.835938 61.0625 -84.65625 51.867188 -85.117188 L 18.308594 -85.117188 C 8.199219 -85.117188 0 -76.917969 0 -66.808594 L 0 0 C 10.113281 0 18.464844 -7.96875 18.308594 -18.082031 L 17.699219 -68.414062 L 17.621094 -84.582031 C 17.699219 -74.238281 24.667969 -68.644531 33.097656 -68.644531 L 47.195312 -68.644531 C 51.867188 -68.644531 55.621094 -64.96875 55.621094 -60.292969 L 55.925781 -1.148438 C 55.851562 -11.339844 47.578125 -16.855469 37.3125 -16.855469 L 18.308594 -16.703125 L 18.308594 0 L 55.925781 -0.078125 C 65.734375 -0.078125 73.625 -9.882812 73.625 -26.660156 Z M 73.625 -57.460938 "/></g></g></g><g fill="#000000" fill-opacity="1"><g transform="translate(234.266461, 96.451777)"><g><path d="M 72.628906 0 L 60.292969 -19.535156 C 54.703125 -27.886719 47.730469 -30.722656 38 -30.722656 L 37.847656 -30.722656 C 38.304688 -30.722656 38.84375 -30.722656 39.378906 -30.722656 C 39.839844 -30.722656 40.222656 -30.644531 40.757812 -30.722656 C 53.167969 -31.105469 70.945312 -37.15625 70.945312 -59.222656 C 70.945312 -82.359375 56.769531 -85.195312 44.359375 -85.195312 L 19.765625 -85.421875 C 19.765625 -85.421875 19.765625 -68.644531 35.164062 -68.644531 C 51.945312 -68.644531 53.324219 -63.664062 53.324219 -55.851562 C 53.324219 -49.644531 47.882812 -44.664062 36.390625 -44.664062 L 19.84375 -44.664062 L 19.765625 -65.8125 L 19.765625 -85.421875 C 9.882812 -84.964844 0 -76.535156 0 -66.5 L 0 0 L 0.84375 0 C 1.148438 0 1.457031 0 1.761719 0 C 11.644531 -0.460938 19.460938 -8.582031 19.460938 -18.617188 L 19.460938 -46.199219 C 19.691406 -38.304688 25.664062 -33.785156 31.949219 -31.871094 L 50.566406 0 Z M 72.628906 0 "/></g></g></g><g fill="#000000" fill-opacity="1"><g transform="translate(310.7215, 96.451777)"><g><path d="M 19.535156 -83.96875 C 19.691406 -73.855469 27.964844 -68.644531 38.152344 -68.644531 L 56.769531 -68.644531 L 56.769531 -85.195312 L 18.617188 -85.195312 C 8.351562 -85.195312 0 -76.84375 0 -66.5 L 0 -20.148438 C 0 -8.964844 8.964844 0 20.148438 0 L 55.007812 0 L 55.007812 -16.777344 L 36.851562 -16.777344 C 27.65625 -16.703125 20.148438 -9.269531 20.148438 0 L 19.765625 -46.8125 C 21.910156 -39.457031 24.976562 -35.011719 39.53125 -35.011719 L 55.46875 -35.011719 L 55.46875 -50.410156 L 19.765625 -50.410156 Z M 19.535156 -83.96875 "/></g></g></g></svg>