<svg xmlns="http://www.w3.org/2000/svg" xmlns:xlink="http://www.w3.org/1999/xlink" width="200" zoomAndPan="magnify" viewBox="0 0 150 74.999997" height="100" preserveAspectRatio="xMidYMid meet" version="1.0"><defs><g/><clipPath id="d2c7726074"><path d="M 0 7.5 L 112 7.5 L 112 55 L 0 55 Z M 0 7.5 " clip-rule="nonzero"/></clipPath></defs><g clip-path="url(#d2c7726074)"><path fill="#231f20" d="M 35.1875 40.117188 C 42.003906 39.023438 48.476562 36.339844 50.496094 29.320312 C 51.722656 25.054688 52.574219 17.21875 48.054688 14.445312 C 44.460938 12.242188 39.316406 12.808594 35.300781 12.800781 C 28.574219 12.78125 21.851562 13.769531 15.417969 15.71875 C 12.222656 16.6875 9.617188 17.574219 7.398438 19.441406 C 6.925781 19.835938 5.914062 20.785156 4.910156 22.21875 C 3 24.945312 2.253906 27.875 1.941406 29.792969 C 1.878906 31.28125 1.789062 34.601562 3.4375 37.5 C 3.859375 38.25 4.371094 38.925781 5.113281 39.476562 C 6.304688 40.363281 7.785156 40.6875 9.515625 40.738281 C 17.917969 40.988281 26.863281 41.449219 35.1875 40.117188 Z M 3.285156 51.855469 C 1.710938 50.289062 1.347656 48.195312 1.140625 44.898438 C 0.628906 36.839844 1.457031 30.523438 1.820312 29.234375 C 1.953125 28.128906 2.179688 26.714844 2.542969 25.058594 C 3.175781 22.179688 4.453125 18.992188 5.164062 16.601562 C 6.796875 11.101562 19.925781 10.257812 24.886719 9.382812 C 34.917969 7.609375 42.414062 7.5 45.730469 7.527344 C 49.667969 7.558594 52.097656 7.804688 53.914062 8.058594 C 58.496094 8.695312 62.097656 9.785156 65.523438 10.972656 C 74.925781 14.230469 82.195312 17.957031 83.644531 18.695312 C 101.753906 27.871094 112.144531 34.5 111.964844 34.824219 C 111.800781 35.121094 103.28125 29.3125 90.855469 28.199219 C 88.195312 27.960938 81.894531 27.394531 81.089844 29.523438 C 79.953125 32.546875 90.640625 39.042969 91.117188 39.332031 C 97.058594 42.898438 102.402344 44.289062 103.898438 44.578125 C 101.222656 44.324219 86.203125 43.039062 76.871094 32.703125 C 74.808594 30.421875 72.238281 26.828125 68.953125 27.140625 C 67.402344 27.285156 66.03125 28.277344 62.621094 32.703125 C 57.296875 39.609375 55.035156 44.515625 54.703125 44.367188 C 54.320312 44.191406 56.128906 37.007812 61.035156 29.789062 C 64.566406 24.597656 68.546875 21.089844 71.449219 18.894531 C 69.574219 17.957031 66.847656 16.847656 63.410156 16.273438 C 61.199219 15.902344 59.207031 15.835938 57.542969 15.90625 C 58.542969 16.328125 59.242188 17.316406 59.242188 18.472656 L 59.242188 29.410156 C 59.242188 30.945312 58 32.191406 56.472656 32.191406 C 55.660156 32.191406 54.925781 31.839844 54.421875 31.28125 C 54.082031 34.3125 53.726562 37.347656 53.363281 40.375 C 52.945312 43.828125 52.515625 47.277344 52.066406 50.726562 C 51.644531 53.996094 35.84375 53.675781 33.65625 53.773438 C 25.609375 54.125 17.542969 54.121094 9.496094 53.761719 C 6.359375 53.621094 4.46875 53.035156 3.285156 51.855469 " fill-opacity="1" fill-rule="nonzero"/></g><path fill="#231f20" d="M 104.3125 44.632812 C 104.308594 44.644531 104.164062 44.628906 103.898438 44.578125 C 104.171875 44.601562 104.316406 44.617188 104.3125 44.632812 " fill-opacity="1" fill-rule="nonzero"/><path fill="#231f20" d="M 34.605469 57.582031 C 34.722656 57.230469 35.039062 56.984375 35.40625 56.964844 C 39.835938 56.722656 44.027344 56.339844 47.953125 55.867188 C 49.59375 55.667969 51.035156 56.949219 51.035156 58.605469 L 51.035156 59.269531 C 51.035156 60.683594 49.96875 61.871094 48.566406 62.015625 C 44.0625 62.476562 39.226562 62.820312 34.089844 62.984375 C 33.464844 63.003906 33.015625 62.394531 33.210938 61.800781 L 34.605469 57.582031 " fill-opacity="1" fill-rule="nonzero"/><path fill="#231f20" d="M -0.0625 58.671875 C -0.0585938 58.652344 -0.0585938 58.636719 -0.0585938 58.617188 C 0.015625 57.023438 1.417969 55.824219 2.996094 56.007812 C 5.867188 56.335938 8.886719 56.617188 12.042969 56.828125 C 12.4375 56.851562 12.769531 57.136719 12.859375 57.527344 L 13.730469 61.464844 C 13.863281 62.054688 13.390625 62.601562 12.792969 62.558594 C 9.140625 62.296875 5.652344 61.949219 2.347656 61.542969 C 0.917969 61.367188 -0.128906 60.113281 -0.0625 58.671875 " fill-opacity="1" fill-rule="nonzero"/><path fill="#231f20" d="M 11.847656 20.941406 L 39.289062 33.929688 C 39.289062 33.929688 30.316406 30.484375 11.847656 20.941406 " fill-opacity="1" fill-rule="nonzero"/><path fill="#231f20" d="M 43.417969 33.929688 C 43.417969 33.929688 34.445312 30.484375 15.972656 20.941406 L 43.417969 33.929688 " fill-opacity="1" fill-rule="nonzero"/><g fill="#231f20" fill-opacity="1"><g transform="translate(54.189255, 58.591421)"><g><path d="M 8.796875 -15.96875 L 9.25 -16.0625 C 9.3125 -16.0625 9.34375 -16.003906 9.34375 -15.890625 C 9.34375 -15.773438 9.160156 -15.582031 8.796875 -15.3125 C 8.441406 -15.039062 8.007812 -14.90625 7.5 -14.90625 C 7 -14.90625 6.601562 -15.050781 6.3125 -15.34375 C 6.03125 -15.632812 5.890625 -16.007812 5.890625 -16.46875 C 5.890625 -17.457031 6.53125 -18.4375 7.8125 -19.40625 C 9.101562 -20.382812 10.691406 -21.164062 12.578125 -21.75 C 14.460938 -22.332031 16.265625 -22.625 17.984375 -22.625 C 20.515625 -22.625 22.394531 -22.210938 23.625 -21.390625 C 24.851562 -20.578125 25.46875 -19.476562 25.46875 -18.09375 C 25.46875 -16.332031 24.242188 -14.625 21.796875 -12.96875 C 20.503906 -12.09375 19.109375 -11.394531 17.609375 -10.875 C 19.253906 -10.695312 20.566406 -10.171875 21.546875 -9.296875 C 22.273438 -8.628906 22.640625 -7.78125 22.640625 -6.75 C 22.640625 -5.71875 22.148438 -4.671875 21.171875 -3.609375 C 20.191406 -2.546875 18.882812 -1.660156 17.25 -0.953125 C 15.625 -0.253906 13.957031 0.09375 12.25 0.09375 C 10.289062 0.09375 8.847656 -0.335938 7.921875 -1.203125 C 7.503906 -1.597656 7.296875 -1.945312 7.296875 -2.25 C 7.296875 -2.5625 7.375 -2.882812 7.53125 -3.21875 C 6.769531 -1.851562 6.210938 -0.820312 5.859375 -0.125 C 5.703125 0.1875 5.382812 0.34375 4.90625 0.34375 C 4.4375 0.34375 4.070312 0.21875 3.8125 -0.03125 C 3.550781 -0.28125 3.421875 -0.5625 3.421875 -0.875 C 3.421875 -1.1875 3.46875 -1.460938 3.5625 -1.703125 C 4.03125 -2.921875 5.679688 -5.785156 8.515625 -10.296875 C 11.347656 -14.816406 13.082031 -17.4375 13.71875 -18.15625 C 14.050781 -18.5625 14.800781 -18.765625 15.96875 -18.765625 C 16.4375 -18.765625 16.671875 -18.660156 16.671875 -18.453125 C 16.671875 -18.296875 15.976562 -17.125 14.59375 -14.9375 C 13.21875 -12.757812 12.5 -11.617188 12.4375 -11.515625 C 13.882812 -11.929688 15.363281 -12.5 16.875 -13.21875 C 18.382812 -13.945312 19.703125 -14.765625 20.828125 -15.671875 C 21.953125 -16.585938 22.515625 -17.414062 22.515625 -18.15625 C 22.515625 -19.375 21.195312 -19.984375 18.5625 -19.984375 C 15.800781 -19.984375 13.140625 -19.25 10.578125 -17.78125 C 9.941406 -17.414062 9.457031 -17.082031 9.125 -16.78125 C 8.800781 -16.476562 8.640625 -16.265625 8.640625 -16.140625 C 8.640625 -16.023438 8.691406 -15.96875 8.796875 -15.96875 Z M 11.59375 -8.515625 C 11.40625 -8.515625 11.195312 -8.734375 10.96875 -9.171875 C 9.988281 -7.585938 8.957031 -5.828125 7.875 -3.890625 C 8.363281 -4.566406 9.070312 -4.90625 10 -4.90625 C 10.625 -4.90625 10.9375 -4.828125 10.9375 -4.671875 C 10.9375 -4.609375 10.867188 -4.550781 10.734375 -4.5 C 10.316406 -4.34375 10.109375 -4.109375 10.109375 -3.796875 C 10.109375 -3.054688 10.90625 -2.6875 12.5 -2.6875 C 14.65625 -2.6875 16.601562 -3.429688 18.34375 -4.921875 C 19.28125 -5.710938 19.75 -6.40625 19.75 -7 C 19.75 -7.363281 19.367188 -7.765625 18.609375 -8.203125 C 17.722656 -8.691406 16.378906 -8.9375 14.578125 -8.9375 C 13.316406 -8.9375 12.507812 -8.863281 12.15625 -8.71875 C 11.800781 -8.582031 11.613281 -8.515625 11.59375 -8.515625 Z M 11.59375 -8.515625 "/></g></g></g><g fill="#231f20" fill-opacity="1"><g transform="translate(76.013032, 58.591421)"><g><path d="M 11.546875 -11.875 C 11.859375 -11.875 12.175781 -11.734375 12.5 -11.453125 C 12.832031 -11.171875 13 -10.742188 13 -10.171875 C 13 -9.597656 12.796875 -8.847656 12.390625 -7.921875 C 11.984375 -7.003906 11.425781 -6.066406 10.71875 -5.109375 C 10.007812 -4.160156 9.234375 -3.269531 8.390625 -2.4375 C 7.546875 -1.601562 6.628906 -0.914062 5.640625 -0.375 C 4.660156 0.15625 3.769531 0.421875 2.96875 0.421875 C 2.175781 0.421875 1.535156 0.171875 1.046875 -0.328125 C 0.566406 -0.835938 0.328125 -1.539062 0.328125 -2.4375 C 0.328125 -3.332031 0.546875 -4.328125 0.984375 -5.421875 C 1.429688 -6.515625 2 -7.476562 2.6875 -8.3125 C 3.382812 -9.15625 4.140625 -9.90625 4.953125 -10.5625 C 6.648438 -11.925781 8.140625 -12.609375 9.421875 -12.609375 C 9.984375 -12.609375 10.410156 -12.46875 10.703125 -12.1875 C 10.804688 -12.09375 10.859375 -12.007812 10.859375 -11.9375 L 10.859375 -11.84375 C 11.003906 -11.863281 11.234375 -11.875 11.546875 -11.875 Z M 9.96875 -9.796875 L 9.859375 -9.796875 C 9.503906 -9.796875 9.328125 -10.0625 9.328125 -10.59375 C 8.566406 -10.34375 7.769531 -9.90625 6.9375 -9.28125 C 6.101562 -8.664062 5.359375 -7.929688 4.703125 -7.078125 C 3.378906 -5.367188 2.707031 -3.929688 2.6875 -2.765625 C 2.6875 -2.179688 2.894531 -1.890625 3.3125 -1.890625 C 3.738281 -1.890625 4.375 -2.164062 5.21875 -2.71875 C 6.0625 -3.28125 6.894531 -4.082031 7.71875 -5.125 C 8.550781 -6.164062 9.171875 -7.066406 9.578125 -7.828125 C 9.984375 -8.597656 10.1875 -9.117188 10.1875 -9.390625 C 10.1875 -9.660156 10.113281 -9.796875 9.96875 -9.796875 Z M 9.96875 -9.796875 "/></g></g></g><g fill="#231f20" fill-opacity="1"><g transform="translate(87.704341, 58.591421)"><g><path d="M 6.0625 -8.5 C 8.507812 -11.28125 10.597656 -12.671875 12.328125 -12.671875 C 12.753906 -12.671875 13.101562 -12.539062 13.375 -12.28125 C 13.65625 -12.03125 13.796875 -11.703125 13.796875 -11.296875 C 13.796875 -10.890625 13.503906 -10.210938 12.921875 -9.265625 C 12.347656 -8.316406 11.816406 -7.515625 11.328125 -6.859375 C 11.066406 -6.523438 10.769531 -6.359375 10.4375 -6.359375 C 10.113281 -6.359375 9.863281 -6.476562 9.6875 -6.71875 C 9.507812 -6.957031 9.421875 -7.238281 9.421875 -7.5625 C 9.421875 -8.28125 9.800781 -9.085938 10.5625 -9.984375 L 10.53125 -10.015625 C 10.1875 -9.984375 9.335938 -9.304688 7.984375 -7.984375 C 6.628906 -6.671875 5.476562 -5.492188 4.53125 -4.453125 C 3.582031 -3.410156 2.550781 -2.140625 1.4375 -0.640625 C 1.113281 -0.191406 0.835938 0.03125 0.609375 0.03125 C 0.390625 0.03125 0.0976562 -0.0351562 -0.265625 -0.171875 C -0.640625 -0.316406 -0.863281 -0.421875 -0.9375 -0.484375 C -1.019531 -0.546875 -1.0625 -0.648438 -1.0625 -0.796875 C -1.0625 -0.941406 -1.019531 -1.109375 -0.9375 -1.296875 C -0.851562 -1.492188 -0.695312 -1.769531 -0.46875 -2.125 C -0.25 -2.476562 0.0820312 -3.046875 0.53125 -3.828125 C 0.988281 -4.617188 1.691406 -5.8125 2.640625 -7.40625 C 3.597656 -9.007812 4.171875 -9.976562 4.359375 -10.3125 C 4.753906 -11 5.078125 -11.5 5.328125 -11.8125 C 5.796875 -12.40625 6.585938 -12.703125 7.703125 -12.703125 C 7.953125 -12.703125 8.078125 -12.546875 8.078125 -12.234375 C 8.078125 -11.742188 7.625 -10.828125 6.71875 -9.484375 Z M 6.0625 -8.5 "/></g></g></g><g fill="#231f20" fill-opacity="1"><g transform="translate(98.850055, 58.591421)"><g><path d="M 11.09375 -3.453125 C 11.632812 -3.796875 11.984375 -4.03125 12.140625 -4.15625 C 12.296875 -4.289062 12.476562 -4.445312 12.6875 -4.625 C 12.894531 -4.800781 13.066406 -4.890625 13.203125 -4.890625 C 13.410156 -4.890625 13.515625 -4.648438 13.515625 -4.171875 C 13.515625 -3.703125 13.28125 -3.195312 12.8125 -2.65625 C 12.351562 -2.113281 11.78125 -1.648438 11.09375 -1.265625 C 10.40625 -0.890625 9.675781 -0.5625 8.90625 -0.28125 C 7.351562 0.289062 6.03125 0.578125 4.9375 0.578125 C 3.851562 0.578125 2.875 0.222656 2 -0.484375 C 1.132812 -1.203125 0.703125 -2.132812 0.703125 -3.28125 C 0.703125 -4.425781 0.988281 -5.570312 1.5625 -6.71875 C 2.132812 -7.875 2.867188 -8.882812 3.765625 -9.75 C 4.660156 -10.613281 5.703125 -11.316406 6.890625 -11.859375 C 8.085938 -12.398438 9.265625 -12.671875 10.421875 -12.671875 C 10.984375 -12.671875 11.488281 -12.507812 11.9375 -12.1875 C 12.382812 -11.863281 12.609375 -11.421875 12.609375 -10.859375 C 12.609375 -10.296875 12.328125 -9.625 11.765625 -8.84375 C 11.210938 -8.0625 10.648438 -7.671875 10.078125 -7.671875 C 9.421875 -7.671875 9.09375 -7.988281 9.09375 -8.625 C 9.09375 -8.789062 9.242188 -9.082031 9.546875 -9.5 C 9.859375 -9.925781 10.015625 -10.210938 10.015625 -10.359375 C 10.015625 -10.515625 9.957031 -10.59375 9.84375 -10.59375 C 9.28125 -10.59375 8.671875 -10.394531 8.015625 -10 C 7.359375 -9.613281 6.757812 -9.203125 6.21875 -8.765625 C 5.6875 -8.328125 5.179688 -7.835938 4.703125 -7.296875 C 3.671875 -6.117188 3.15625 -4.894531 3.15625 -3.625 C 3.15625 -3.125 3.316406 -2.6875 3.640625 -2.3125 C 3.960938 -1.945312 4.507812 -1.765625 5.28125 -1.765625 C 6.0625 -1.765625 6.84375 -1.851562 7.625 -2.03125 C 8.40625 -2.21875 9.046875 -2.414062 9.546875 -2.625 C 10.046875 -2.84375 10.5625 -3.117188 11.09375 -3.453125 Z M 11.09375 -3.453125 "/></g></g></g><g fill="#231f20" fill-opacity="1"><g transform="translate(110.494599, 58.591421)"><g><path d="M 11.6875 -11.65625 C 11.6875 -10.96875 11.40625 -10.363281 10.84375 -9.84375 C 10.289062 -9.332031 9.664062 -9.078125 8.96875 -9.078125 C 8.738281 -9.078125 8.585938 -9.128906 8.515625 -9.234375 C 8.441406 -9.347656 8.40625 -9.488281 8.40625 -9.65625 C 8.40625 -9.832031 8.425781 -10.003906 8.46875 -10.171875 C 8.09375 -10.046875 7.675781 -9.851562 7.21875 -9.59375 C 6.757812 -9.34375 6.195312 -8.960938 5.53125 -8.453125 C 4.863281 -7.941406 4.53125 -7.5625 4.53125 -7.3125 C 4.53125 -7.226562 4.648438 -7.1875 4.890625 -7.1875 C 5.140625 -7.1875 5.519531 -7.269531 6.03125 -7.4375 C 6.539062 -7.613281 6.894531 -7.703125 7.09375 -7.703125 C 7.300781 -7.703125 7.4375 -7.691406 7.5 -7.671875 C 7.632812 -7.597656 7.78125 -7.4375 7.9375 -7.1875 C 8.09375 -6.945312 8.171875 -6.753906 8.171875 -6.609375 C 8.171875 -6.472656 8.035156 -6.289062 7.765625 -6.0625 C 7.492188 -5.832031 7.1875 -5.65625 6.84375 -5.53125 C 6.5 -5.414062 6.269531 -5.328125 6.15625 -5.265625 C 3.96875 -4.035156 2.875 -3.195312 2.875 -2.75 C 2.875 -1.9375 3.5625 -1.53125 4.9375 -1.53125 C 5.820312 -1.53125 6.710938 -1.8125 7.609375 -2.375 C 8.367188 -2.851562 9.050781 -3.335938 9.65625 -3.828125 C 10.257812 -4.316406 10.640625 -4.617188 10.796875 -4.734375 C 10.960938 -4.847656 11.085938 -4.90625 11.171875 -4.90625 C 11.441406 -4.90625 11.578125 -4.601562 11.578125 -4 C 11.578125 -3.40625 11.539062 -3.007812 11.46875 -2.8125 C 11.394531 -2.625 11.1875 -2.390625 10.84375 -2.109375 C 8.625 -0.296875 6.519531 0.609375 4.53125 0.609375 C 3.476562 0.609375 2.632812 0.460938 2 0.171875 C 0.832031 -0.359375 0.25 -1.171875 0.25 -2.265625 C 0.25 -3.691406 1.238281 -4.773438 3.21875 -5.515625 C 2.832031 -5.691406 2.582031 -5.914062 2.46875 -6.1875 C 2.351562 -6.46875 2.296875 -6.910156 2.296875 -7.515625 C 2.296875 -8.128906 2.578125 -8.773438 3.140625 -9.453125 C 3.703125 -10.128906 4.394531 -10.6875 5.21875 -11.125 C 7.050781 -12.113281 8.679688 -12.609375 10.109375 -12.609375 C 10.453125 -12.609375 10.800781 -12.523438 11.15625 -12.359375 C 11.507812 -12.191406 11.6875 -11.957031 11.6875 -11.65625 Z M 11.6875 -11.65625 "/></g></g></g><g fill="#231f20" fill-opacity="1"><g transform="translate(120.627066, 58.591421)"><g><path d="M 13.890625 -23.390625 C 14.390625 -23.390625 14.828125 -23.238281 15.203125 -22.9375 C 15.585938 -22.644531 15.78125 -22.207031 15.78125 -21.625 C 15.78125 -21.050781 15.457031 -20.140625 14.8125 -18.890625 C 14.164062 -17.648438 13.390625 -16.382812 12.484375 -15.09375 C 11.578125 -13.800781 10.554688 -12.425781 9.421875 -10.96875 C 7.609375 -8.664062 5.867188 -6.59375 4.203125 -4.75 C 4.191406 -4.625 4.144531 -4.390625 4.0625 -4.046875 C 3.988281 -3.710938 3.953125 -3.375 3.953125 -3.03125 C 3.953125 -2.695312 4.109375 -2.390625 4.421875 -2.109375 C 4.742188 -1.835938 5.140625 -1.703125 5.609375 -1.703125 C 6.078125 -1.703125 6.578125 -1.867188 7.109375 -2.203125 C 7.648438 -2.535156 8.117188 -2.898438 8.515625 -3.296875 C 9.546875 -4.367188 10.1875 -4.90625 10.4375 -4.90625 C 10.6875 -4.90625 10.8125 -4.523438 10.8125 -3.765625 L 10.8125 -3.453125 C 10.8125 -3.054688 10.738281 -2.765625 10.59375 -2.578125 C 9.726562 -1.503906 8.75 -0.703125 7.65625 -0.171875 C 6.5625 0.347656 5.523438 0.609375 4.546875 0.609375 C 3.578125 0.609375 2.835938 0.3125 2.328125 -0.28125 C 1.816406 -0.882812 1.5625 -1.707031 1.5625 -2.75 C 1.5625 -4.769531 2.101562 -7.148438 3.1875 -9.890625 C 4.269531 -12.628906 5.492188 -14.957031 6.859375 -16.875 C 9.921875 -21.21875 12.265625 -23.390625 13.890625 -23.390625 Z M 13.1875 -20.8125 C 13.1875 -20.96875 13.132812 -21.046875 13.03125 -21.046875 C 12.664062 -21.046875 11.707031 -20.003906 10.15625 -17.921875 C 8.613281 -15.847656 7.492188 -14.191406 6.796875 -12.953125 C 6.109375 -11.710938 5.457031 -10.160156 4.84375 -8.296875 C 6.070312 -9.742188 7.769531 -12.007812 9.9375 -15.09375 C 12.101562 -18.175781 13.1875 -20.082031 13.1875 -20.8125 Z M 13.1875 -20.8125 "/></g></g></g><g fill="#231f20" fill-opacity="1"><g transform="translate(128.857747, 58.591421)"><g><path d="M 13.890625 -23.390625 C 14.390625 -23.390625 14.828125 -23.238281 15.203125 -22.9375 C 15.585938 -22.644531 15.78125 -22.207031 15.78125 -21.625 C 15.78125 -21.050781 15.457031 -20.140625 14.8125 -18.890625 C 14.164062 -17.648438 13.390625 -16.382812 12.484375 -15.09375 C 11.578125 -13.800781 10.554688 -12.425781 9.421875 -10.96875 C 7.609375 -8.664062 5.867188 -6.59375 4.203125 -4.75 C 4.191406 -4.625 4.144531 -4.390625 4.0625 -4.046875 C 3.988281 -3.710938 3.953125 -3.375 3.953125 -3.03125 C 3.953125 -2.695312 4.109375 -2.390625 4.421875 -2.109375 C 4.742188 -1.835938 5.140625 -1.703125 5.609375 -1.703125 C 6.078125 -1.703125 6.578125 -1.867188 7.109375 -2.203125 C 7.648438 -2.535156 8.117188 -2.898438 8.515625 -3.296875 C 9.546875 -4.367188 10.1875 -4.90625 10.4375 -4.90625 C 10.6875 -4.90625 10.8125 -4.523438 10.8125 -3.765625 L 10.8125 -3.453125 C 10.8125 -3.054688 10.738281 -2.765625 10.59375 -2.578125 C 9.726562 -1.503906 8.75 -0.703125 7.65625 -0.171875 C 6.5625 0.347656 5.523438 0.609375 4.546875 0.609375 C 3.578125 0.609375 2.835938 0.3125 2.328125 -0.28125 C 1.816406 -0.882812 1.5625 -1.707031 1.5625 -2.75 C 1.5625 -4.769531 2.101562 -7.148438 3.1875 -9.890625 C 4.269531 -12.628906 5.492188 -14.957031 6.859375 -16.875 C 9.921875 -21.21875 12.265625 -23.390625 13.890625 -23.390625 Z M 13.1875 -20.8125 C 13.1875 -20.96875 13.132812 -21.046875 13.03125 -21.046875 C 12.664062 -21.046875 11.707031 -20.003906 10.15625 -17.921875 C 8.613281 -15.847656 7.492188 -14.191406 6.796875 -12.953125 C 6.109375 -11.710938 5.457031 -10.160156 4.84375 -8.296875 C 6.070312 -9.742188 7.769531 -12.007812 9.9375 -15.09375 C 12.101562 -18.175781 13.1875 -20.082031 13.1875 -20.8125 Z M 13.1875 -20.8125 "/></g></g></g><g fill="#231f20" fill-opacity="1"><g transform="translate(137.088429, 58.591421)"><g><path d="M 11.6875 -11.65625 C 11.6875 -10.96875 11.40625 -10.363281 10.84375 -9.84375 C 10.289062 -9.332031 9.664062 -9.078125 8.96875 -9.078125 C 8.738281 -9.078125 8.585938 -9.128906 8.515625 -9.234375 C 8.441406 -9.347656 8.40625 -9.488281 8.40625 -9.65625 C 8.40625 -9.832031 8.425781 -10.003906 8.46875 -10.171875 C 8.09375 -10.046875 7.675781 -9.851562 7.21875 -9.59375 C 6.757812 -9.34375 6.195312 -8.960938 5.53125 -8.453125 C 4.863281 -7.941406 4.53125 -7.5625 4.53125 -7.3125 C 4.53125 -7.226562 4.648438 -7.1875 4.890625 -7.1875 C 5.140625 -7.1875 5.519531 -7.269531 6.03125 -7.4375 C 6.539062 -7.613281 6.894531 -7.703125 7.09375 -7.703125 C 7.300781 -7.703125 7.4375 -7.691406 7.5 -7.671875 C 7.632812 -7.597656 7.78125 -7.4375 7.9375 -7.1875 C 8.09375 -6.945312 8.171875 -6.753906 8.171875 -6.609375 C 8.171875 -6.472656 8.035156 -6.289062 7.765625 -6.0625 C 7.492188 -5.832031 7.1875 -5.65625 6.84375 -5.53125 C 6.5 -5.414062 6.269531 -5.328125 6.15625 -5.265625 C 3.96875 -4.035156 2.875 -3.195312 2.875 -2.75 C 2.875 -1.9375 3.5625 -1.53125 4.9375 -1.53125 C 5.820312 -1.53125 6.710938 -1.8125 7.609375 -2.375 C 8.367188 -2.851562 9.050781 -3.335938 9.65625 -3.828125 C 10.257812 -4.316406 10.640625 -4.617188 10.796875 -4.734375 C 10.960938 -4.847656 11.085938 -4.90625 11.171875 -4.90625 C 11.441406 -4.90625 11.578125 -4.601562 11.578125 -4 C 11.578125 -3.40625 11.539062 -3.007812 11.46875 -2.8125 C 11.394531 -2.625 11.1875 -2.390625 10.84375 -2.109375 C 8.625 -0.296875 6.519531 0.609375 4.53125 0.609375 C 3.476562 0.609375 2.632812 0.460938 2 0.171875 C 0.832031 -0.359375 0.25 -1.171875 0.25 -2.265625 C 0.25 -3.691406 1.238281 -4.773438 3.21875 -5.515625 C 2.832031 -5.691406 2.582031 -5.914062 2.46875 -6.1875 C 2.351562 -6.46875 2.296875 -6.910156 2.296875 -7.515625 C 2.296875 -8.128906 2.578125 -8.773438 3.140625 -9.453125 C 3.703125 -10.128906 4.394531 -10.6875 5.21875 -11.125 C 7.050781 -12.113281 8.679688 -12.609375 10.109375 -12.609375 C 10.453125 -12.609375 10.800781 -12.523438 11.15625 -12.359375 C 11.507812 -12.191406 11.6875 -11.957031 11.6875 -11.65625 Z M 11.6875 -11.65625 "/></g></g></g></svg>