<svg xmlns="http://www.w3.org/2000/svg" xmlns:xlink="http://www.w3.org/1999/xlink" width="200" zoomAndPan="magnify" viewBox="0 0 150 30.000001" height="40" preserveAspectRatio="xMidYMid meet" version="1.0"><defs><g/></defs><g fill="#8b5cf6" fill-opacity="1"><g transform="translate(2.471148, 24.923656)"><g><path d="M 1.6875 -16.050781 L 14.054688 -16.050781 L 14.054688 0 L 17.679688 0 L 17.679688 -16.050781 L 30.078125 -16.050781 L 30.078125 -19.675781 L 1.6875 -19.675781 Z M 1.6875 -16.050781 "/></g></g></g><g fill="#8b5cf6" fill-opacity="1"><g transform="translate(34.223127, 24.923656)"><g><path d="M 12.257812 -13.550781 C 12.257812 -17.625 10.542969 -19.707031 7.113281 -19.707031 L 1.6875 -19.707031 L 1.6875 0 L 5.285156 0 L 5.285156 -6.773438 L 5.789062 -6.773438 L 8.375 0 L 12.226562 0 L 9.472656 -7.28125 C 11.863281 -8.320312 12.257812 -10.964844 12.257812 -13.550781 Z M 6.804688 -10.289062 L 5.285156 -10.289062 L 5.285156 -16.191406 L 6.664062 -16.191406 C 7.5625 -16.191406 8.65625 -15.460938 8.65625 -13.378906 C 8.65625 -11.105469 7.535156 -10.289062 6.804688 -10.289062 Z M 6.804688 -10.289062 "/></g></g></g><g fill="#8b5cf6" fill-opacity="1"><g transform="translate(48.188382, 24.923656)"><g><path d="M 10.992188 -16.023438 L 10.992188 -19.707031 L 1.6875 -19.707031 L 1.6875 0.0273438 L 10.992188 0.0273438 L 10.992188 -3.625 L 5.285156 -3.625 L 5.285156 -8.9375 L 9.277344 -8.9375 L 9.277344 -12.566406 L 5.285156 -12.566406 L 5.285156 -16.023438 Z M 10.992188 -16.023438 "/></g></g></g><g fill="#8b5cf6" fill-opacity="1"><g transform="translate(60.861074, 24.923656)"><g><path d="M 9.417969 -19.707031 L 7.394531 -3.570312 L 5.339844 -19.707031 L 1.6875 -19.707031 L 4.1875 0.0273438 L 10.625 0.0273438 L 13.070312 -19.707031 Z M 9.417969 -19.707031 "/></g></g></g><g fill="#8b5cf6" fill-opacity="1"><g transform="translate(75.641199, 24.923656)"><g><path d="M 10.992188 -16.023438 L 10.992188 -19.707031 L 1.6875 -19.707031 L 1.6875 0.0273438 L 10.992188 0.0273438 L 10.992188 -3.625 L 5.285156 -3.625 L 5.285156 -8.9375 L 9.277344 -8.9375 L 9.277344 -12.566406 L 5.285156 -12.566406 L 5.285156 -16.023438 Z M 10.992188 -16.023438 "/></g></g></g><g fill="#8b5cf6" fill-opacity="1"><g transform="translate(88.31389, 24.923656)"><g><path d="M 5.285156 -3.625 L 5.285156 -19.707031 L 1.6875 -19.707031 L 1.6875 0 L 10.261719 0 L 10.261719 -3.625 Z M 5.285156 -3.625 "/></g></g></g><g fill="#38b6ff" fill-opacity="1"><g transform="translate(100.015248, 24.923656)"><g><path d="M 10.148438 -19.707031 L 1.6875 -19.707031 L 1.6875 -16.078125 L 4.105469 -16.078125 L 4.105469 0 L 7.730469 0 L 7.730469 -16.078125 L 10.148438 -16.078125 Z M 10.148438 -19.707031 "/></g></g></g><g fill="#38b6ff" fill-opacity="1"><g transform="translate(111.873069, 24.923656)"><g><path d="M 5.285156 0 L 5.285156 -19.675781 L 1.6875 -19.675781 L 1.6875 0 Z M 5.285156 0 "/></g></g></g><g fill="#38b6ff" fill-opacity="1"><g transform="translate(118.869739, 24.923656)"><g><path d="M 7.027344 -19.707031 L 1.6875 -19.707031 L 1.6875 0 L 5.285156 0 L 5.285156 -6.773438 L 7.082031 -6.773438 L 7.082031 -6.804688 C 11.496094 -6.972656 12.117188 -10.289062 12.117188 -13.550781 C 12.117188 -17.625 10.402344 -19.707031 7.027344 -19.707031 Z M 6.746094 -10.289062 L 5.285156 -10.289062 L 5.285156 -16.191406 L 6.605469 -16.191406 C 7.503906 -16.191406 8.546875 -15.460938 8.546875 -13.378906 C 8.546875 -11.105469 7.476562 -10.289062 6.746094 -10.289062 Z M 6.746094 -10.289062 "/></g></g></g><g fill="#38b6ff" fill-opacity="1"><g transform="translate(132.666392, 24.923656)"><g><path d="M 7.84375 -11.695312 C 7.363281 -12.003906 6.941406 -12.3125 6.523438 -12.621094 C 4.917969 -13.941406 5.285156 -14.898438 5.425781 -15.265625 C 5.734375 -15.996094 6.605469 -16.246094 7.308594 -16.078125 C 8.292969 -15.828125 8.515625 -14.785156 8.546875 -13.886719 L 12.171875 -13.886719 C 12.117188 -15.769531 11.523438 -17.34375 10.484375 -18.382812 C 8.628906 -20.15625 5.398438 -19.988281 3.65625 -18.695312 C 2.953125 -18.1875 2.417969 -17.457031 2.082031 -16.585938 C 1.125 -14.195312 1.910156 -11.75 4.246094 -9.839844 C 4.75 -9.417969 5.285156 -9.050781 5.789062 -8.714844 C 6.832031 -7.984375 7.730469 -7.363281 8.207031 -6.410156 C 8.65625 -5.507812 8.515625 -4.554688 8.125 -4.046875 C 7.957031 -3.824219 7.644531 -3.515625 6.914062 -3.65625 C 6.492188 -3.710938 5.425781 -3.878906 5.339844 -6.632812 L 1.714844 -6.632812 C 1.855469 -1.574219 4.667969 -0.335938 6.324219 -0.0546875 C 6.632812 -0.0273438 6.941406 0 7.253906 0 C 8.769531 0 10.148438 -0.648438 11.046875 -1.882812 C 12.285156 -3.570312 12.453125 -6.015625 11.46875 -8.011719 C 10.570312 -9.8125 9.109375 -10.792969 7.84375 -11.695312 Z M 7.84375 -11.695312 "/></g></g></g></svg>