<svg xmlns="http://www.w3.org/2000/svg" xmlns:xlink="http://www.w3.org/1999/xlink" width="200" zoomAndPan="magnify" viewBox="0 0 150 74.999997" height="100" preserveAspectRatio="xMidYMid meet" version="1.0"><defs><g/></defs><g fill="#000000" fill-opacity="1"><g transform="translate(-0.408312, 63.594157)"><g><path d="M 32.078125 1.171875 C 30.972656 1.171875 30 1.003906 29.15625 0.671875 C 28.320312 0.347656 27.867188 -0.101562 27.796875 -0.6875 L 27.796875 -15.5625 L 4.5625 -15.5625 C 3.53125 -15.5625 2.753906 -15.882812 2.234375 -16.53125 C 1.710938 -17.175781 1.453125 -17.984375 1.453125 -18.953125 C 1.453125 -19.796875 1.679688 -20.507812 2.140625 -21.09375 L 29.453125 -50.9375 C 30.097656 -51.59375 31.101562 -51.921875 32.46875 -51.921875 C 33.507812 -51.921875 34.382812 -51.644531 35.09375 -51.09375 C 35.8125 -50.539062 36.203125 -49.679688 36.265625 -48.515625 L 36.265625 -20.3125 L 42.09375 -20.3125 C 43 -20.3125 43.644531 -20.195312 44.03125 -19.96875 C 44.425781 -19.75 44.65625 -19.085938 44.71875 -17.984375 C 44.71875 -17.273438 44.570312 -16.691406 44.28125 -16.234375 C 43.988281 -15.785156 43.519531 -15.5625 42.875 -15.5625 L 36.265625 -15.5625 L 36.265625 -0.6875 C 36.265625 -0.101562 35.84375 0.347656 35 0.671875 C 34.15625 1.003906 33.179688 1.171875 32.078125 1.171875 Z M 7.09375 -20.3125 L 27.796875 -20.3125 L 27.796875 -43.359375 Z M 7.09375 -20.3125 "/></g></g></g><g fill="#000000" fill-opacity="1"><g transform="translate(47.810991, 63.594157)"><g><path d="M 28.484375 1.9375 C 23.429688 1.9375 19.171875 0.707031 15.703125 -1.75 C 12.234375 -4.207031 9.640625 -7.476562 7.921875 -11.5625 C 6.203125 -15.644531 5.34375 -20.085938 5.34375 -24.890625 C 5.34375 -29.742188 6.203125 -34.179688 7.921875 -38.203125 C 9.640625 -42.222656 12.234375 -45.445312 15.703125 -47.875 C 19.171875 -50.3125 23.429688 -51.53125 28.484375 -51.53125 C 33.273438 -51.53125 37.421875 -50.296875 40.921875 -47.828125 C 44.421875 -45.367188 47.078125 -42.097656 48.890625 -38.015625 C 50.710938 -33.929688 51.625 -29.554688 51.625 -24.890625 C 51.625 -20.222656 50.710938 -15.847656 48.890625 -11.765625 C 47.078125 -7.679688 44.421875 -4.375 40.921875 -1.84375 C 37.421875 0.675781 33.273438 1.9375 28.484375 1.9375 Z M 28.578125 -1.65625 C 32.921875 -1.65625 36.289062 -3.660156 38.6875 -7.671875 C 41.09375 -11.691406 42.296875 -17.429688 42.296875 -24.890625 C 42.296875 -32.335938 41.09375 -38.035156 38.6875 -41.984375 C 36.289062 -45.941406 32.921875 -47.921875 28.578125 -47.921875 C 24.109375 -47.921875 20.675781 -45.960938 18.28125 -42.046875 C 15.882812 -38.128906 14.6875 -32.410156 14.6875 -24.890625 C 14.6875 -17.367188 15.882812 -11.613281 18.28125 -7.625 C 20.675781 -3.644531 24.109375 -1.65625 28.578125 -1.65625 Z M 28.578125 -1.65625 "/></g></g></g><g fill="#000000" fill-opacity="1"><g transform="translate(104.682558, 63.594157)"><g><path d="M 32.078125 1.171875 C 30.972656 1.171875 30 1.003906 29.15625 0.671875 C 28.320312 0.347656 27.867188 -0.101562 27.796875 -0.6875 L 27.796875 -15.5625 L 4.5625 -15.5625 C 3.53125 -15.5625 2.753906 -15.882812 2.234375 -16.53125 C 1.710938 -17.175781 1.453125 -17.984375 1.453125 -18.953125 C 1.453125 -19.796875 1.679688 -20.507812 2.140625 -21.09375 L 29.453125 -50.9375 C 30.097656 -51.59375 31.101562 -51.921875 32.46875 -51.921875 C 33.507812 -51.921875 34.382812 -51.644531 35.09375 -51.09375 C 35.8125 -50.539062 36.203125 -49.679688 36.265625 -48.515625 L 36.265625 -20.3125 L 42.09375 -20.3125 C 43 -20.3125 43.644531 -20.195312 44.03125 -19.96875 C 44.425781 -19.75 44.65625 -19.085938 44.71875 -17.984375 C 44.71875 -17.273438 44.570312 -16.691406 44.28125 -16.234375 C 43.988281 -15.785156 43.519531 -15.5625 42.875 -15.5625 L 36.265625 -15.5625 L 36.265625 -0.6875 C 36.265625 -0.101562 35.84375 0.347656 35 0.671875 C 34.15625 1.003906 33.179688 1.171875 32.078125 1.171875 Z M 7.09375 -20.3125 L 27.796875 -20.3125 L 27.796875 -43.359375 Z M 7.09375 -20.3125 "/></g></g></g><path stroke-linecap="butt" transform="matrix(1.042012, 0, 0, 1.042012, 2.250003, -35.575252)" fill="none" stroke-linejoin="miter" d="M 30.796039 97.116301 C 29.735141 97.116301 28.797952 96.955104 27.995718 96.63646 C 27.189735 96.332811 26.75113 95.901704 26.672406 95.33939 L 26.672406 81.079117 L 4.39729 81.079117 C 3.392623 81.079117 2.642871 80.76797 2.140538 80.145676 C 1.638204 79.523382 1.390786 78.739892 1.390786 77.798954 C 1.390786 76.99672 1.608214 76.310697 2.050568 75.748384 L 28.269377 47.119123 C 28.891671 46.49683 29.855101 46.185683 31.159669 46.185683 C 32.164336 46.185683 33.004057 46.448096 33.69008 46.980419 C 34.372354 47.497748 34.743481 48.318726 34.803461 49.439604 L 34.803461 76.501884 L 40.407853 76.501884 C 41.273816 76.501884 41.888613 76.614347 42.252242 76.843021 C 42.634615 77.0567 42.852043 77.686491 42.915772 78.732395 C 42.915772 79.418417 42.769571 79.980731 42.480916 80.419335 C 42.207257 80.861689 41.761155 81.079117 41.138861 81.079117 L 34.803461 81.079117 L 34.803461 95.33939 C 34.803461 95.901704 34.394846 96.332811 33.573869 96.63646 C 32.771635 96.955104 31.845691 97.116301 30.796039 97.116301 Z M 6.811489 76.501884 L 26.672406 76.501884 L 26.672406 54.384215 Z M 73.610598 97.866052 C 68.763454 97.866052 64.67356 96.692691 61.333417 94.338472 C 58.004521 91.969257 55.515346 88.82405 53.862144 84.906598 C 52.220188 80.989147 51.39921 76.723061 51.39921 72.104592 C 51.39921 67.444886 52.220188 63.182549 53.862144 59.325078 C 55.515346 55.471355 58.004521 52.37863 61.333417 50.054401 C 64.67356 47.718925 68.763454 46.549312 73.610598 46.549312 C 78.210323 46.549312 82.187755 47.73392 85.546641 50.103134 C 88.916774 52.453605 91.465929 55.598813 93.197855 59.531259 C 94.944776 63.448711 95.818237 67.639822 95.818237 72.104592 C 95.818237 76.584357 94.944776 80.782965 93.197855 84.700416 C 91.465929 88.621617 88.916774 91.793065 85.546641 94.22226 C 82.187755 96.651455 78.210323 97.866052 73.610598 97.866052 Z M 73.700568 94.405949 C 77.876684 94.405949 81.111861 92.475339 83.402352 88.621617 C 85.711587 84.764145 86.866204 79.257221 86.866204 72.104592 C 86.866204 64.951962 85.711587 59.486274 83.402352 55.703778 C 81.111861 51.910035 77.876684 50.009415 73.700568 50.009415 C 69.419487 50.009415 66.124329 51.89504 63.815095 55.658793 C 61.50586 59.411299 60.351243 64.891982 60.351243 72.104592 C 60.351243 79.332196 61.50586 84.861613 63.815095 88.689094 C 66.124329 92.501581 69.419487 94.405949 73.700568 94.405949 Z M 131.64886 97.116301 C 130.587961 97.116301 129.654521 96.955104 128.848538 96.63646 C 128.042555 96.332811 127.603951 95.901704 127.528975 95.33939 L 127.528975 81.079117 L 105.25011 81.079117 C 104.249192 81.079117 103.495692 80.76797 102.993358 80.145676 C 102.494773 79.523382 102.243607 78.739892 102.243607 77.798954 C 102.243607 76.99672 102.464783 76.310697 102.903388 75.748384 L 129.122197 47.119123 C 129.744491 46.49683 130.707922 46.185683 132.016238 46.185683 C 133.017156 46.185683 133.860627 46.448096 134.5429 46.980419 C 135.225174 47.497748 135.60005 48.318726 135.66003 49.439604 L 135.66003 76.501884 L 141.260674 76.501884 C 142.126637 76.501884 142.741433 76.614347 143.108811 76.843021 C 143.487436 77.0567 143.708612 77.686491 143.768592 78.732395 C 143.768592 79.418417 143.622391 79.980731 143.333737 80.419335 C 143.063826 80.861689 142.613975 81.079117 141.991681 81.079117 L 135.66003 81.079117 L 135.66003 95.33939 C 135.66003 95.901704 135.247667 96.332811 134.430438 96.63646 C 133.624455 96.955104 132.698512 97.116301 131.64886 97.116301 Z M 107.66431 76.501884 L 127.528975 76.501884 L 127.528975 54.384215 Z M 107.66431 76.501884 " stroke="#ffffff" stroke-width="4.081949" stroke-opacity="1" stroke-miterlimit="4"/></svg>